<?xml version="1.0" encoding="utf-8"?>
<!-- Generator: Adobe Illustrator 16.0.0, SVG Export Plug-In . SVG Version: 6.00 Build 0)  -->
<!DOCTYPE svg PUBLIC "-//W3C//DTD SVG 1.1//EN" "http://www.w3.org/Graphics/SVG/1.1/DTD/svg11.dtd">
<svg version="1.1" xmlns="http://www.w3.org/2000/svg" xmlns:xlink="http://www.w3.org/1999/xlink" x="0px" y="0px"
	 width="103.495px" height="106.495px" viewBox="354.593 335.105 103.495 106.495"
	 enable-background="new 354.593 335.105 103.495 106.495" xml:space="preserve">
<g id="Layer_1" display="none">
	<g display="inline">
		<path d="M420.975,386.327c-0.463,0-0.926-0.177-1.278-0.53c-0.706-0.707-0.706-1.849,0-2.555l5.422-5.421
			c0.706-0.707,1.849-0.707,2.555,0c0.707,0.707,0.707,1.849,0,2.555l-5.421,5.421C421.899,386.149,421.437,386.327,420.975,386.327
			z"/>
		<g>
			<line fill="none" x1="431.817" y1="384.52" x2="426.396" y2="379.098"/>
			<path d="M431.817,386.327c-0.463,0-0.926-0.177-1.278-0.53l-5.421-5.421c-0.707-0.707-0.707-1.849,0-2.555
				c0.706-0.707,1.849-0.707,2.555,0l5.422,5.421c0.707,0.707,0.707,1.849,0,2.555C432.742,386.149,432.28,386.327,431.817,386.327z
				"/>
		</g>
		<path d="M377.603,388.134c-0.462,0-0.925-0.177-1.277-0.53c-0.707-0.707-0.707-1.849,0-2.555l10.843-10.843
			c0.707-0.707,1.849-0.707,2.555,0s0.707,1.849,0,2.555l-10.843,10.843C378.528,387.957,378.065,388.134,377.603,388.134z"/>
		<path d="M388.446,388.134c-0.463,0-0.925-0.177-1.278-0.53l-10.843-10.843c-0.707-0.707-0.707-1.849,0-2.555s1.849-0.707,2.555,0
			l10.843,10.843c0.707,0.707,0.707,1.849,0,2.555C389.371,387.957,388.908,388.134,388.446,388.134z"/>
		<path d="M410.132,417.048c-0.463,0-0.926-0.177-1.278-0.529c-0.706-0.707-0.706-1.849,0-2.555l10.843-10.843
			c0.707-0.707,1.849-0.707,2.556,0c0.707,0.707,0.707,1.849,0,2.556l-10.843,10.843
			C411.057,416.871,410.594,417.048,410.132,417.048z"/>
		<path d="M420.975,417.048c-0.463,0-0.926-0.177-1.278-0.529l-10.843-10.843c-0.706-0.707-0.706-1.849,0-2.556
			c0.707-0.707,1.849-0.707,2.556,0l10.843,10.843c0.707,0.707,0.707,1.849,0,2.555
			C421.899,416.871,421.437,417.048,420.975,417.048z"/>
		<path d="M399.289,373.677c-0.463,0-0.925-0.177-1.278-0.53c-0.707-0.707-0.707-1.849,0-2.555l10.843-10.843
			c0.707-0.707,1.849-0.707,2.556,0c0.706,0.707,0.706,1.849,0,2.555l-10.843,10.843C400.214,373.5,399.751,373.677,399.289,373.677
			z"/>
		<path d="M410.132,373.677c-0.463,0-0.926-0.177-1.278-0.53l-10.843-10.843c-0.707-0.707-0.707-1.849,0-2.555
			c0.707-0.707,1.849-0.707,2.556,0l10.843,10.843c0.706,0.707,0.706,1.849,0,2.555C411.057,373.5,410.594,373.677,410.132,373.677z
			"/>
		<path d="M426.396,373.677c-3.986,0-7.229-3.242-7.229-7.229c0-3.986,3.242-7.229,7.229-7.229s7.229,3.242,7.229,7.229
			C433.624,370.435,430.382,373.677,426.396,373.677z M426.396,362.833c-1.993,0-3.614,1.621-3.614,3.614
			c0,1.994,1.621,3.615,3.614,3.615s3.614-1.621,3.614-3.615C430.01,364.455,428.389,362.833,426.396,362.833z"/>
		<path d="M388.446,417.048c-0.998,0-1.807-0.808-1.807-1.807v-9.036c0-7.975,6.487-14.462,14.461-14.462h16.347
			c3.938,0,7.141-3.203,7.141-7.14v-5.504c0-0.998,0.808-1.807,1.807-1.807c1,0,1.808,0.81,1.808,1.807v5.504
			c0,5.929-4.825,10.754-10.755,10.754H401.1c-5.98,0-10.847,4.867-10.847,10.848v9.036
			C390.253,416.24,389.443,417.048,388.446,417.048z"/>
	</g>
</g>
<g id="Layer_2" display="none">
	<path display="inline" d="M373.52,359.66h2.5c0.133,0,0.2,0.067,0.2,0.2v13.94c0,0.134-0.067,0.2-0.2,0.2h-2.5
		c-0.133,0-0.2-0.066-0.2-0.2v-13.94C373.32,359.727,373.387,359.66,373.52,359.66z M383.34,359.72c0.027,0.04,0.013,0.106-0.04,0.2
		l-3.72,6.38c-0.027,0.027-0.07,0.094-0.13,0.2c-0.06,0.107-0.09,0.173-0.09,0.2c0,0.04,0.023,0.106,0.07,0.2
		c0.046,0.094,0.083,0.16,0.11,0.2l3.88,6.64c0.053,0.093,0.066,0.16,0.04,0.2c-0.027,0.04-0.06,0.06-0.1,0.06h-3.04
		c-0.053,0-0.093-0.02-0.12-0.06c-0.027-0.04-0.047-0.073-0.06-0.1l-3.14-5.6c-0.4-0.693-0.6-1.193-0.6-1.5
		c0-0.053,0.007-0.11,0.02-0.17s0.04-0.146,0.08-0.26s0.1-0.25,0.18-0.41c0.08-0.16,0.187-0.367,0.32-0.62l3.02-5.46
		c0.013-0.026,0.033-0.06,0.06-0.1c0.026-0.04,0.066-0.06,0.12-0.06h3.04C383.28,359.66,383.313,359.68,383.34,359.72z"/>
	<path display="inline" d="M387.44,370.16c0,0.2,0.053,0.383,0.16,0.55c0.106,0.167,0.25,0.313,0.43,0.44
		c0.18,0.127,0.396,0.227,0.65,0.3c0.253,0.073,0.52,0.11,0.8,0.11h4.76c0.133,0,0.2,0.067,0.2,0.2v2.04c0,0.134-0.067,0.2-0.2,0.2
		h-3.38c-1.12,0-2.057-0.093-2.81-0.28c-0.753-0.187-1.36-0.483-1.82-0.89s-0.787-0.923-0.98-1.55c-0.193-0.626-0.29-1.38-0.29-2.26
		c0-1.066,0.163-1.95,0.49-2.65c0.327-0.7,0.753-1.257,1.28-1.67s1.12-0.703,1.78-0.87c0.66-0.167,1.323-0.25,1.99-0.25
		c0.827,0,1.54,0.097,2.14,0.29s1.093,0.467,1.48,0.82c0.387,0.354,0.67,0.784,0.85,1.29c0.18,0.507,0.27,1.073,0.27,1.7v2.08
		c0,0.134-0.067,0.2-0.2,0.2h-7.4C387.507,369.96,387.44,370.027,387.44,370.16z M392.78,367.62c0.133,0,0.2-0.067,0.2-0.2
		c0-0.506-0.233-0.91-0.7-1.21c-0.467-0.3-1.12-0.45-1.96-0.45c-0.267,0-0.563,0.04-0.89,0.12s-0.64,0.19-0.94,0.33
		c-0.3,0.14-0.55,0.313-0.75,0.52c-0.2,0.207-0.3,0.437-0.3,0.69c0,0.133,0.067,0.2,0.2,0.2H392.78z"/>
	<path display="inline" d="M399.68,370.16c0,0.2,0.054,0.383,0.16,0.55c0.107,0.167,0.25,0.313,0.431,0.44
		c0.18,0.127,0.396,0.227,0.649,0.3c0.254,0.073,0.521,0.11,0.801,0.11h4.76c0.133,0,0.199,0.067,0.199,0.2v2.04
		c0,0.134-0.066,0.2-0.199,0.2h-3.38c-1.12,0-2.058-0.093-2.81-0.28c-0.754-0.187-1.361-0.483-1.82-0.89
		c-0.461-0.407-0.787-0.923-0.98-1.55c-0.193-0.626-0.29-1.38-0.29-2.26c0-1.066,0.163-1.95,0.49-2.65
		c0.327-0.7,0.753-1.257,1.28-1.67c0.526-0.413,1.119-0.703,1.779-0.87c0.66-0.167,1.324-0.25,1.99-0.25
		c0.826,0,1.54,0.097,2.141,0.29c0.6,0.193,1.093,0.467,1.479,0.82c0.387,0.354,0.67,0.784,0.85,1.29
		c0.181,0.507,0.271,1.073,0.271,1.7v2.08c0,0.134-0.067,0.2-0.2,0.2h-7.399C399.747,369.96,399.68,370.027,399.68,370.16z
		 M405.021,367.62c0.133,0,0.2-0.067,0.2-0.2c0-0.506-0.234-0.91-0.7-1.21c-0.467-0.3-1.12-0.45-1.96-0.45
		c-0.268,0-0.563,0.04-0.891,0.12c-0.326,0.08-0.64,0.19-0.939,0.33c-0.301,0.14-0.551,0.313-0.75,0.52
		c-0.2,0.207-0.301,0.437-0.301,0.69c0,0.133,0.067,0.2,0.201,0.2H405.021z"/>
	<path display="inline" d="M412.2,377.56c0,0.133-0.066,0.2-0.2,0.2h-2.04c-0.133,0-0.199-0.066-0.199-0.2v-13.78
		c0-0.133,0.066-0.2,0.199-0.2h4.94c0.786,0,1.443,0.14,1.97,0.42c0.527,0.28,0.947,0.653,1.261,1.12c0.312,0.467,0.536,1,0.67,1.6
		c0.133,0.6,0.199,1.22,0.199,1.86c0,0.947-0.109,1.76-0.329,2.44c-0.221,0.68-0.527,1.24-0.921,1.68
		c-0.393,0.44-0.866,0.767-1.42,0.98c-0.553,0.213-1.163,0.32-1.83,0.32h-2.1c-0.134,0-0.2,0.066-0.2,0.2V377.56z M412.2,371.36
		c0,0.134,0.066,0.2,0.2,0.2h2.64c0.2,0,0.396-0.063,0.591-0.19c0.192-0.126,0.366-0.287,0.52-0.48s0.28-0.41,0.38-0.65
		c0.101-0.24,0.15-0.473,0.15-0.7V368c0-0.213-0.05-0.44-0.15-0.68c-0.1-0.24-0.227-0.453-0.38-0.64s-0.327-0.343-0.52-0.47
		c-0.194-0.126-0.391-0.19-0.591-0.19h-2.64c-0.134,0-0.2,0.067-0.2,0.2V371.36z"/>
	<path display="inline" d="M422.939,359.66h2.5c0.134,0,0.2,0.067,0.2,0.2v13.94c0,0.134-0.066,0.2-0.2,0.2h-2.5
		c-0.133,0-0.199-0.066-0.199-0.2v-13.94C422.74,359.727,422.807,359.66,422.939,359.66z"/>
	<path display="inline" d="M432.72,371.36c0,0.134,0.066,0.2,0.2,0.2h1.68c0.107,0.013,0.16,0.08,0.16,0.2v2.04
		c0,0.134-0.066,0.2-0.2,0.2h-2.52c-0.507,0-0.927-0.153-1.26-0.46c-0.334-0.307-0.5-0.667-0.5-1.08v-6.24
		c0-0.133-0.067-0.2-0.2-0.2h-1.061c-0.133,0-0.199-0.066-0.199-0.2v-2.04c0-0.133,0.066-0.2,0.199-0.2h1.061
		c0.133,0,0.2-0.066,0.2-0.2v-2.5c0-0.133,0.066-0.2,0.2-0.2h2.039c0.134,0,0.2,0.067,0.2,0.2v2.5c0,0.134,0.066,0.2,0.2,0.2h1.64
		c0.134,0,0.2,0.067,0.2,0.2v2.04c0,0.134-0.066,0.2-0.2,0.2h-1.64c-0.134,0-0.2,0.067-0.2,0.2V371.36z"/>
	<path display="inline" d="M377.06,388.04c-0.414,0-0.857-0.053-1.33-0.16c-0.474-0.106-0.903-0.313-1.29-0.62
		c-0.227-0.187-0.417-0.41-0.57-0.67c-0.153-0.26-0.28-0.54-0.38-0.84c-0.1-0.3-0.174-0.606-0.22-0.92
		c-0.047-0.313-0.07-0.623-0.07-0.93c0-0.133,0-0.26,0-0.38s0.013-0.24,0.04-0.36c0.093-1.16,0.526-2.06,1.3-2.7
		c0.227-0.187,0.506-0.367,0.84-0.54c0.333-0.173,0.66-0.26,0.98-0.26h6.62c0.133,0,0.2,0.067,0.2,0.2v2.2
		c0,0.133-0.067,0.2-0.2,0.2h-5.78c-0.187,0-0.357,0.083-0.51,0.25c-0.153,0.167-0.263,0.324-0.33,0.47
		c-0.067,0.133-0.107,0.267-0.12,0.4c-0.014,0.134-0.02,0.267-0.02,0.4c0,0.214,0.013,0.434,0.04,0.66
		c0.027,0.227,0.12,0.427,0.28,0.6c0.146,0.147,0.35,0.233,0.61,0.26c0.26,0.027,0.543,0.04,0.85,0.04h2.24
		c0.413,0,0.846,0.057,1.3,0.17c0.453,0.114,0.873,0.33,1.26,0.65c0.227,0.187,0.417,0.413,0.57,0.68
		c0.153,0.267,0.28,0.554,0.38,0.86s0.17,0.626,0.21,0.96s0.06,0.653,0.06,0.96c0,0.147,0,0.287,0,0.42
		c0,0.12-0.014,0.233-0.04,0.34c-0.107,1.213-0.533,2.147-1.28,2.8c-0.227,0.187-0.503,0.37-0.83,0.55
		c-0.327,0.18-0.637,0.27-0.93,0.27h-7.28c-0.134,0-0.2-0.066-0.2-0.2v-2.2c0-0.133,0.066-0.2,0.2-0.2h6.44
		c0.2,0,0.373-0.097,0.52-0.29c0.146-0.193,0.253-0.37,0.32-0.53c0.066-0.146,0.106-0.287,0.12-0.42
		c0.013-0.133,0.02-0.273,0.02-0.42c0-0.213-0.014-0.437-0.04-0.67c-0.027-0.233-0.12-0.443-0.28-0.63
		c-0.133-0.146-0.323-0.25-0.57-0.31s-0.537-0.09-0.87-0.09H377.06z"/>
	<path display="inline" d="M386.7,379.66h2.04c0.133,0,0.2,0.067,0.2,0.2v2.04c0,0.133-0.066,0.2-0.2,0.2h-2.04
		c-0.133,0-0.2-0.067-0.2-0.2v-2.04C386.5,379.727,386.566,379.66,386.7,379.66z M386.5,383.78c0-0.133,0.067-0.2,0.2-0.2h2.04
		c0.133,0,0.2,0.067,0.2,0.2v10.02c0,0.134-0.066,0.2-0.2,0.2h-2.04c-0.133,0-0.2-0.066-0.2-0.2V383.78z"/>
	<path display="inline" d="M391.62,384.78c0-0.333,0.13-0.616,0.39-0.85c0.26-0.233,0.537-0.35,0.83-0.35h4.141
		c0.346,0,0.666,0.08,0.959,0.24c0.293,0.16,0.507,0.307,0.641,0.44c0.066,0.067,0.143,0.144,0.229,0.23
		c0.087,0.086,0.144,0.13,0.171,0.13c0.025,0,0.062-0.023,0.109-0.07c0.047-0.046,0.104-0.11,0.17-0.19s0.15-0.167,0.25-0.26
		s0.223-0.173,0.37-0.24c0.267-0.146,0.536-0.23,0.81-0.25s0.45-0.03,0.53-0.03h1.42c0.547,0,1.047,0.104,1.5,0.31
		s0.843,0.47,1.17,0.79c0.327,0.32,0.58,0.677,0.761,1.07c0.18,0.394,0.27,0.777,0.27,1.15v6.9c0,0.134-0.066,0.2-0.2,0.2h-2.021
		c-0.146,0-0.219-0.066-0.219-0.2v-6.64c0-0.213-0.047-0.403-0.141-0.57c-0.094-0.167-0.21-0.31-0.35-0.43
		c-0.141-0.12-0.294-0.21-0.461-0.27c-0.166-0.06-0.322-0.09-0.469-0.09h-1.32c-0.24,0-0.477,0.09-0.711,0.27
		c-0.232,0.18-0.35,0.444-0.35,0.79v6.94c0,0.134-0.066,0.2-0.199,0.2h-2.041c-0.133,0-0.199-0.066-0.199-0.2v-6.94
		c0-0.267-0.131-0.51-0.391-0.73c-0.26-0.22-0.543-0.33-0.85-0.33h-1.84c-0.146,0-0.27,0.06-0.37,0.18
		c-0.1,0.12-0.15,0.26-0.15,0.42v7.4c0,0.134-0.066,0.2-0.2,0.2h-2.04c-0.133,0-0.2-0.066-0.2-0.2V384.78z"/>
	<path display="inline" d="M410.379,397.56c0,0.133-0.066,0.2-0.2,0.2h-2.04c-0.133,0-0.199-0.066-0.199-0.2v-13.78
		c0-0.133,0.066-0.2,0.199-0.2h4.94c0.786,0,1.443,0.14,1.97,0.42c0.527,0.28,0.947,0.653,1.261,1.12c0.312,0.467,0.536,1,0.67,1.6
		c0.133,0.6,0.199,1.22,0.199,1.86c0,0.947-0.109,1.76-0.329,2.44c-0.221,0.68-0.527,1.24-0.921,1.68
		c-0.393,0.44-0.866,0.767-1.42,0.98c-0.553,0.213-1.163,0.32-1.83,0.32h-2.1c-0.134,0-0.2,0.066-0.2,0.2V397.56z M410.379,391.36
		c0,0.134,0.066,0.2,0.2,0.2h2.64c0.2,0,0.396-0.063,0.591-0.19c0.192-0.126,0.366-0.287,0.52-0.48s0.28-0.41,0.38-0.65
		c0.101-0.24,0.15-0.473,0.15-0.7V388c0-0.213-0.05-0.44-0.15-0.68c-0.1-0.24-0.227-0.453-0.38-0.64s-0.327-0.343-0.52-0.47
		c-0.194-0.126-0.391-0.19-0.591-0.19h-2.64c-0.134,0-0.2,0.067-0.2,0.2V391.36z"/>
	<path display="inline" d="M419.479,379.66h2.04c0.134,0,0.2,0.067,0.2,0.2v11.86v0.04v2.04c0,0.134-0.066,0.2-0.2,0.2h-2.04
		c-0.133,0-0.199-0.066-0.199-0.2v-2.04v-0.04v-11.86C419.28,379.727,419.347,379.66,419.479,379.66z"/>
	<path display="inline" d="M426.359,390.16c0,0.2,0.053,0.383,0.16,0.55c0.106,0.167,0.25,0.313,0.43,0.44
		c0.18,0.127,0.396,0.227,0.649,0.3c0.254,0.073,0.521,0.11,0.801,0.11h4.76c0.133,0,0.2,0.067,0.2,0.2v2.04
		c0,0.134-0.067,0.2-0.2,0.2h-3.38c-1.12,0-2.057-0.093-2.811-0.28c-0.753-0.187-1.359-0.483-1.819-0.89s-0.787-0.923-0.98-1.55
		c-0.193-0.626-0.29-1.38-0.29-2.26c0-1.066,0.163-1.95,0.49-2.65c0.326-0.7,0.753-1.257,1.28-1.67
		c0.526-0.413,1.12-0.703,1.779-0.87c0.66-0.167,1.323-0.25,1.99-0.25c0.827,0,1.54,0.097,2.141,0.29
		c0.6,0.193,1.093,0.467,1.479,0.82c0.387,0.354,0.67,0.784,0.85,1.29c0.181,0.507,0.271,1.073,0.271,1.7v2.08
		c0,0.134-0.067,0.2-0.2,0.2h-7.399C426.426,389.96,426.359,390.027,426.359,390.16z M431.699,387.62c0.133,0,0.2-0.067,0.2-0.2
		c0-0.506-0.233-0.91-0.7-1.21s-1.12-0.45-1.96-0.45c-0.267,0-0.563,0.04-0.891,0.12c-0.326,0.08-0.64,0.19-0.939,0.33
		s-0.55,0.313-0.75,0.52c-0.2,0.207-0.3,0.437-0.3,0.69c0,0.133,0.066,0.2,0.2,0.2H431.699z"/>
	<path display="inline" d="M435,391.3h2.3c0.133,0,0.2,0.067,0.2,0.2v2.3c0,0.054-0.007,0.094-0.021,0.12l-1.24,1.66
		c-0.013,0.026-0.023,0.05-0.029,0.07c-0.007,0.02-0.037,0.03-0.091,0.03h-1.06c-0.146,0-0.2-0.04-0.16-0.12l0.66-1.4
		c0.04-0.067,0.047-0.114,0.02-0.14c-0.013-0.014-0.033-0.02-0.06-0.02s-0.054,0-0.08,0H435c-0.134,0-0.2-0.066-0.2-0.2v-2.3
		C434.8,391.367,434.866,391.3,435,391.3z"/>
	<path display="inline" d="M377.06,408.04c-0.414,0-0.857-0.053-1.33-0.16c-0.474-0.106-0.903-0.313-1.29-0.62
		c-0.227-0.187-0.417-0.41-0.57-0.67c-0.153-0.26-0.28-0.54-0.38-0.84c-0.1-0.3-0.174-0.606-0.22-0.92
		c-0.047-0.313-0.07-0.623-0.07-0.93c0-0.133,0-0.26,0-0.38s0.013-0.24,0.04-0.36c0.093-1.16,0.526-2.06,1.3-2.7
		c0.227-0.187,0.506-0.367,0.84-0.54c0.333-0.173,0.66-0.26,0.98-0.26h6.62c0.133,0,0.2,0.067,0.2,0.2v2.2
		c0,0.133-0.067,0.2-0.2,0.2h-5.78c-0.187,0-0.357,0.083-0.51,0.25c-0.153,0.167-0.263,0.324-0.33,0.47
		c-0.067,0.133-0.107,0.267-0.12,0.4c-0.014,0.134-0.02,0.267-0.02,0.4c0,0.214,0.013,0.434,0.04,0.66
		c0.027,0.227,0.12,0.427,0.28,0.6c0.146,0.147,0.35,0.233,0.61,0.26c0.26,0.027,0.543,0.04,0.85,0.04h2.24
		c0.413,0,0.846,0.057,1.3,0.17c0.453,0.114,0.873,0.33,1.26,0.65c0.227,0.187,0.417,0.413,0.57,0.68
		c0.153,0.267,0.28,0.554,0.38,0.86s0.17,0.626,0.21,0.96s0.06,0.653,0.06,0.96c0,0.147,0,0.287,0,0.42
		c0,0.12-0.014,0.233-0.04,0.34c-0.107,1.213-0.533,2.147-1.28,2.8c-0.227,0.187-0.503,0.37-0.83,0.55
		c-0.327,0.18-0.637,0.27-0.93,0.27h-7.28c-0.134,0-0.2-0.066-0.2-0.2v-2.2c0-0.133,0.066-0.2,0.2-0.2h6.44
		c0.2,0,0.373-0.097,0.52-0.29c0.146-0.193,0.253-0.37,0.32-0.53c0.066-0.146,0.106-0.287,0.12-0.42
		c0.013-0.133,0.02-0.273,0.02-0.42c0-0.213-0.014-0.437-0.04-0.67c-0.027-0.233-0.12-0.443-0.28-0.63
		c-0.133-0.146-0.323-0.25-0.57-0.31s-0.537-0.09-0.87-0.09H377.06z"/>
	<path display="inline" d="M389.9,411.36c0,0.134,0.066,0.2,0.2,0.2h1.68c0.107,0.013,0.16,0.08,0.16,0.2v2.04
		c0,0.134-0.066,0.2-0.199,0.2h-2.521c-0.507,0-0.927-0.153-1.26-0.46c-0.333-0.307-0.5-0.667-0.5-1.08v-6.24
		c0-0.133-0.067-0.2-0.2-0.2h-1.06c-0.133,0-0.2-0.066-0.2-0.2v-2.04c0-0.133,0.067-0.2,0.2-0.2h1.06c0.133,0,0.2-0.066,0.2-0.2
		v-2.5c0-0.133,0.067-0.2,0.2-0.2h2.04c0.133,0,0.2,0.067,0.2,0.2v2.5c0,0.134,0.066,0.2,0.2,0.2h1.641
		c0.133,0,0.199,0.067,0.199,0.2v2.04c0,0.134-0.066,0.2-0.199,0.2H390.1c-0.133,0-0.2,0.067-0.2,0.2V411.36z"/>
	<path display="inline" d="M401.84,403.58h2.039c0.134,0,0.201,0.067,0.201,0.2v7.88c0,0.427-0.131,0.793-0.391,1.1
		c-0.26,0.307-0.6,0.56-1.02,0.76s-0.895,0.347-1.42,0.44c-0.527,0.093-1.058,0.14-1.59,0.14c-0.547,0-1.084-0.047-1.611-0.14
		c-0.526-0.093-0.996-0.24-1.409-0.44s-0.75-0.453-1.011-0.76c-0.26-0.306-0.39-0.673-0.39-1.1v-7.88c0-0.133,0.067-0.2,0.2-0.2
		h2.04c0.134,0,0.2,0.067,0.2,0.2v7.02c0,0.12,0.057,0.233,0.17,0.34s0.26,0.2,0.439,0.28s0.391,0.14,0.631,0.18
		s0.486,0.06,0.74,0.06c0.252,0,0.496-0.02,0.729-0.06s0.442-0.1,0.63-0.18c0.187-0.08,0.336-0.173,0.449-0.28
		s0.171-0.22,0.171-0.34v-7.02C401.64,403.647,401.706,403.58,401.84,403.58z"/>
	<path display="inline" d="M410.119,417.56c0,0.133-0.066,0.2-0.2,0.2h-2.04c-0.133,0-0.199-0.066-0.199-0.2v-13.78
		c0-0.133,0.066-0.2,0.199-0.2h4.94c0.786,0,1.443,0.14,1.97,0.42c0.527,0.28,0.947,0.653,1.261,1.12c0.312,0.467,0.536,1,0.67,1.6
		c0.133,0.6,0.199,1.22,0.199,1.86c0,0.947-0.109,1.76-0.329,2.44c-0.221,0.68-0.527,1.24-0.921,1.68
		c-0.393,0.44-0.866,0.767-1.42,0.98c-0.553,0.213-1.163,0.32-1.83,0.32h-2.1c-0.134,0-0.2,0.066-0.2,0.2V417.56z M410.119,411.36
		c0,0.134,0.066,0.2,0.2,0.2h2.64c0.2,0,0.396-0.063,0.591-0.19c0.192-0.126,0.366-0.287,0.52-0.48s0.28-0.41,0.38-0.65
		c0.101-0.24,0.15-0.473,0.15-0.7V408c0-0.213-0.05-0.44-0.15-0.68c-0.1-0.24-0.227-0.453-0.38-0.64s-0.327-0.343-0.52-0.47
		c-0.194-0.126-0.391-0.19-0.591-0.19h-2.64c-0.134,0-0.2,0.067-0.2,0.2V411.36z"/>
	<path display="inline" d="M419.219,399.66h2.04c0.134,0,0.2,0.067,0.2,0.2v2.04c0,0.133-0.066,0.2-0.2,0.2h-2.04
		c-0.133,0-0.199-0.067-0.199-0.2v-2.04C419.02,399.727,419.086,399.66,419.219,399.66z M419.02,403.78c0-0.133,0.066-0.2,0.199-0.2
		h2.04c0.134,0,0.2,0.067,0.2,0.2v10.02c0,0.134-0.066,0.2-0.2,0.2h-2.04c-0.133,0-0.199-0.066-0.199-0.2V403.78z"/>
	<path display="inline" d="M431.199,403.38v-3.52c0-0.133,0.066-0.2,0.2-0.2h2.04c0.133,0,0.2,0.067,0.2,0.2v13.94
		c0,0.134-0.067,0.2-0.2,0.2h-6.22c-0.641,0-1.188-0.163-1.641-0.49c-0.453-0.326-0.826-0.743-1.12-1.25
		c-0.293-0.506-0.51-1.06-0.649-1.66c-0.141-0.6-0.21-1.18-0.21-1.74c0-0.787,0.069-1.506,0.21-2.16
		c0.14-0.653,0.356-1.21,0.649-1.67c0.294-0.46,0.667-0.816,1.12-1.07c0.453-0.253,1-0.38,1.641-0.38h3.779
		C431.133,403.58,431.199,403.514,431.199,403.38z M431.199,406.22c0-0.133-0.066-0.2-0.2-0.2h-2.18c-0.413,0-0.79,0.037-1.13,0.11
		c-0.34,0.074-0.634,0.213-0.88,0.42c-0.247,0.207-0.438,0.497-0.57,0.87c-0.134,0.374-0.2,0.854-0.2,1.44
		c0,0.547,0.066,0.994,0.2,1.34c0.133,0.347,0.32,0.62,0.561,0.82c0.239,0.2,0.529,0.34,0.869,0.42c0.341,0.08,0.724,0.12,1.15,0.12
		h2.18c0.134,0,0.2-0.066,0.2-0.2V406.22z"/>
</g>
<g id="Layer_3">
	<g>
		<path fill="#494949" d="M415.236,395.709l-1.814-0.438c-1.314-0.313-2.565-1.126-3.379-2.252l-0.375-0.5
			c-0.438-0.563-0.626-1.251-0.501-1.939c0.125-0.813,0.375-1.502,0.626-1.877c0.375-0.563,1.627-0.188,2.001-0.063
			c0.564,0.188,1.127-0.062,1.378-0.625c0.187-0.563-0.063-1.126-0.564-1.376c-1.125-0.438-3.315-0.75-4.441,0.876
			c-0.438,0.625-0.751,1.564-1.001,2.69c-0.251,1.251,0.125,2.565,0.876,3.566l0.375,0.5c1.126,1.501,2.754,2.564,4.567,3.003
			l1.814,0.438c0.062,0,0.188,0.062,0.25,0.062c0.438,0,0.876-0.312,1.001-0.813C416.174,396.397,415.798,395.834,415.236,395.709z"
			/>
		<path fill="#494949" d="M393.714,393.145c-0.25-0.501-0.876-0.751-1.377-0.501l-8.133,3.816c-0.501,0.251-0.751,0.876-0.501,1.376
			c0.188,0.376,0.564,0.626,0.939,0.626c0.125,0,0.313-0.063,0.438-0.125l8.133-3.816
			C393.714,394.271,393.964,393.645,393.714,393.145z"/>
		<path fill="#494949" d="M434.38,392.019l-3.629-5.694c0.251-1.313,0.813-5.192-0.125-8.258c-1.063-3.691-9.134-9.384-10.011-10.01
			c-0.061,0-0.061-0.062-0.124-0.062c-0.313-0.125-7.195-3.441-14.39-1.314c-2.378,0.688-4.567,1.751-6.444,3.065c0,0,0,0-0.063,0
			l-2.252,0.188l-0.188-2.252c0-0.25-0.125-0.5-0.375-0.688c-0.188-0.188-0.5-0.25-0.751-0.25l-2.252,0.188l-0.188-2.252
			c-0.063-0.563-0.563-1.001-1.127-0.939l-2.252,0.188l-0.188-2.253c0-0.25-0.125-0.5-0.375-0.688
			c-0.125-0.188-0.375-0.25-0.688-0.25l-3.253,0.312c-0.563,0.063-1,0.563-0.938,1.126l0.125,1.439
			c0.313,3.754,2.064,7.132,4.942,9.572l4.13,3.504c-0.688,1.689-1.063,3.566-1.126,5.505h-3.816l-2.815-2.815
			c-0.25-0.25-0.625-0.375-0.938-0.313c-0.312,0.063-0.625,0.313-0.75,0.625l-0.875,2.127l-2.503-2.503
			c-0.25-0.25-0.626-0.375-0.938-0.312c-0.313,0.062-0.626,0.312-0.751,0.625l-0.813,1.939l-2.252-2.253
			c-0.25-0.25-0.625-0.375-0.939-0.312c-0.312,0.062-0.625,0.312-0.75,0.625l-1.939,4.817c-0.188,0.563,0.062,1.126,0.563,1.376
			c0.125,0.063,0.25,0.063,0.375,0.063c0.439,0,0.814-0.25,0.939-0.625l1.376-3.379l1.815,1.814l-0.313,0.751
			c-0.188,0.563,0.062,1.126,0.563,1.376c0.125,0.063,0.25,0.063,0.375,0.063c0.438,0,0.812-0.25,0.938-0.625l1.377-3.379
			l2.002,2.002l0,0l-0.25,0.563c-0.188,0.563,0.062,1.126,0.562,1.376c0.125,0.063,0.25,0.063,0.375,0.063
			c0.438,0,0.814-0.25,0.939-0.625l1.376-3.379l2.002,2.002c0.188,0.188,0.438,0.312,0.751,0.312h4.317
			c0.125,1.314,0.438,2.627,0.813,4.004l-9.697,4.629c-0.063,0-0.125,0.063-0.188,0.125l-5.255,4.004
			c-0.125,0.125-0.25,0.376-0.25,0.688c0,0.313,0.062,0.563,0.25,0.813c0.125,0.125,2.565,2.815,6.256,2.815
			c0.938,0,1.94-0.188,3.065-0.625c4.629-1.877,9.635-4.505,9.76-4.63c0.75,1.251,1.689,2.502,2.627,3.816l-9.196,6.382
			c-0.5,0.312-0.564,1.001-0.25,1.438c0.188,0.313,0.5,0.438,0.876,0.438c0,0,0,0,0.062,0l0,0c1.314,0,2.315,1.063,2.315,2.377
			c0,0.625-0.25,1.188-0.688,1.626c-0.438,0.438-1.063,0.688-1.689,0.688c-0.625,0-1.189-0.25-1.627-0.688
			c-0.438-0.438-0.688-1.063-0.688-1.689c0-0.563-0.438-1.064-1.001-1.064l0,0c-0.563,0-1.063,0.438-1.063,1.001
			c0,1.188,0.438,2.314,1.251,3.128c0.813,0.876,1.939,1.314,3.128,1.314h0.062c1.126,0,2.253-0.438,3.066-1.251
			c0.876-0.813,1.314-1.939,1.314-3.128c0-1.627-0.814-3.003-2.127-3.816l7.508-5.255c0.374,0.438,0.75,0.938,1.188,1.376
			l-3.378,8.446c-0.125,0.313-0.063,0.688,0.125,1.001c0.188,0.313,0.5,0.438,0.875,0.438h18.143c0.313,0,0.626-0.188,0.877-0.438
			l2.564-3.566c0.125-0.188,0.312-0.313,0.562-0.313h5.193c0.312,0,0.625-0.062,0.938-0.125l1.314-0.438
			c1-0.375,1.751-1.251,1.876-2.315l0.126-1.126c0-0.25,0.188-0.5,0.438-0.562c1-0.375,1.689-1.376,1.752-2.503v-0.75
			c0-0.813-0.251-1.501-0.813-2.065c0.501-0.5,0.751-1.126,0.688-1.814c-0.062-0.688-0.375-1.314-0.938-1.752l-0.313-0.062
			l1.564-1.439C434.63,393.02,434.692,392.456,434.38,392.019z M386.957,363.427l-0.062-0.376l1.189-0.124l0.188,2.252
			c0.062,0.562,0.563,1,1.126,0.938l2.252-0.187l0.187,2.251c0.063,0.563,0.564,1.001,1.126,0.939l2.252-0.188l0.188,2.251
			c0,0.251,0.125,0.501,0.375,0.688c0.188,0.188,0.5,0.25,0.751,0.25l0.438-0.062c-0.814,0.813-1.439,1.752-2.065,2.69l-3.753-3.19
			C388.709,369.495,387.208,366.617,386.957,363.427z M386.957,398.713c-2.69,1.125-4.88-0.063-6.068-0.876l4.191-3.19l9.447-4.442
			c0.5,1.313,1.188,2.69,1.939,4.066C395.778,394.583,391.211,397.023,386.957,398.713z M430.313,394.083
			c-0.25,0.188-0.376,0.501-0.313,0.813c0,0.313,0.188,0.625,0.438,0.813l1.252,0.938c0.062,0.063,0.124,0.125,0.124,0.187
			c0,0.063,0,0.125-0.062,0.188l-0.938,0.876c-0.251,0.25-0.376,0.563-0.313,0.875c0.062,0.313,0.25,0.625,0.501,0.814l0.562,0.312
			c0.25,0.125,0.375,0.375,0.313,0.626v0.75c0,0.25-0.188,0.501-0.438,0.626c-1.002,0.375-1.628,1.25-1.752,2.314l-0.126,1.127
			c0,0.25-0.188,0.5-0.438,0.562l-1.314,0.438c-0.062,0-0.124,0.062-0.25,0.062h-5.192c-0.876,0-1.753,0.438-2.253,1.126
			l-2.252,3.128h-16.079l3.004-7.632c0.124-0.375,0.062-0.751-0.188-1.064c-6.256-7.194-9.509-13.701-9.634-19.332
			c-0.063-2.314,0.438-4.442,1.501-6.381c0.939-1.752,2.315-3.253,4.004-4.567c1.752-1.314,3.942-2.377,6.257-3.065
			c6.068-1.751,12.074,0.875,12.825,1.188c3.19,2.252,8.509,6.632,9.134,8.884c0.938,3.128,0,7.632,0,7.632
			c-0.062,0.25,0,0.563,0.126,0.75l3.378,5.318L430.313,394.083z"/>
	</g>
</g>
</svg>
