<?xml version="1.0" encoding="utf-8"?>
<!-- Generator: Adobe Illustrator 16.0.0, SVG Export Plug-In . SVG Version: 6.00 Build 0)  -->
<!DOCTYPE svg PUBLIC "-//W3C//DTD SVG 1.1//EN" "http://www.w3.org/Graphics/SVG/1.1/DTD/svg11.dtd">
<svg version="1.1" xmlns="http://www.w3.org/2000/svg" xmlns:xlink="http://www.w3.org/1999/xlink" x="0px" y="0px" width="189.5px"
	 height="78px" viewBox="0 26.5 189.5 78" enable-background="new 0 26.5 189.5 78" xml:space="preserve">
<g id="Layer_1" display="none">
	<ellipse display="inline" fill="#FFFFFF" cx="100.14" cy="75.445" rx="68.229" ry="68.69"/>
	<g display="inline">
		<path d="M62.843,118.639l1.195-0.252c0.145,0.678,0.694,1.014,1.652,1.014c0.437,0,0.773-0.084,1.009-0.26
			c0.235-0.171,0.353-0.389,0.353-0.644c0-0.188-0.054-0.36-0.161-0.521c-0.106-0.156-0.336-0.281-0.685-0.371l-1.306-0.34
			c-0.447-0.117-0.777-0.25-0.99-0.398c-0.214-0.147-0.386-0.358-0.512-0.631c-0.13-0.269-0.193-0.557-0.193-0.862
			c0-0.61,0.226-1.101,0.68-1.472c0.453-0.366,1.033-0.553,1.742-0.553c0.585,0,1.111,0.129,1.573,0.387
			c0.461,0.259,0.756,0.621,0.883,1.093l-1.17,0.29c-0.18-0.518-0.6-0.775-1.261-0.775c-0.384,0-0.676,0.08-0.879,0.239
			c-0.202,0.161-0.302,0.362-0.302,0.61c0,0.392,0.317,0.664,0.951,0.818l1.161,0.291c0.705,0.178,1.175,0.44,1.417,0.783
			c0.239,0.348,0.36,0.727,0.36,1.146c0,0.668-0.252,1.195-0.758,1.582c-0.505,0.385-1.161,0.578-1.964,0.578
			c-0.678,0-1.27-0.144-1.779-0.426C63.348,119.684,63.008,119.24,62.843,118.639z"/>
		<path d="M78.034,115.232l-1.481,5.055h-1.026l-0.91-3.542l-0.906,3.542h-1.057l-1.556-5.055h1.21l0.995,3.399l0.873-3.399h1.035
			l0.886,3.399l0.975-3.399H78.034z"/>
		<path d="M82.298,114.645h-1.14v-1.188h1.14V114.645z M82.298,120.287h-1.14v-5.055h1.14V120.287z"/>
		<path d="M88.348,119.396v0.893c-0.339,0.072-0.604,0.109-0.789,0.109c-0.309,0-0.572-0.062-0.792-0.184
			c-0.22-0.121-0.38-0.29-0.482-0.501c-0.102-0.21-0.153-0.538-0.153-0.979v-2.616h-0.63v-0.886h0.697l0.104-1.314l0.936-0.087
			v1.401h1.016v0.886h-1.016v2.468c0,0.314,0.056,0.533,0.172,0.648c0.115,0.113,0.334,0.173,0.653,0.173
			C88.154,119.407,88.247,119.402,88.348,119.396z"/>
		<path d="M95.014,119.4v0.887h-3.812V119.4l2.438-3.282h-2.208v-0.886h3.583v0.807l-2.497,3.361H95.014z"/>
		<path d="M101.484,118.677l1.033,0.138c-0.136,0.459-0.396,0.836-0.781,1.135c-0.389,0.295-0.873,0.443-1.457,0.443
			c-0.701,0-1.265-0.235-1.692-0.707c-0.426-0.471-0.641-1.106-0.641-1.91c0-0.764,0.214-1.396,0.646-1.897
			c0.43-0.499,1.013-0.75,1.75-0.75c0.722,0,1.279,0.249,1.675,0.742c0.391,0.494,0.588,1.127,0.588,1.901l-0.004,0.129h-3.468
			c0,0.344,0.031,0.619,0.096,0.826c0.066,0.205,0.195,0.385,0.388,0.539c0.193,0.152,0.437,0.23,0.724,0.23
			C100.908,119.496,101.288,119.223,101.484,118.677z M101.416,117.165c-0.005-0.363-0.111-0.66-0.328-0.892
			c-0.216-0.23-0.482-0.346-0.798-0.346c-0.314,0-0.575,0.106-0.787,0.323c-0.208,0.215-0.333,0.521-0.369,0.913L101.416,117.165
			L101.416,117.165z"/>
		<path d="M107.126,120.287h-1.142v-5.055h1.031v1.205c0.146-0.472,0.348-0.812,0.604-1.029c0.258-0.217,0.521-0.325,0.79-0.325
			c0.038,0,0.087,0.002,0.151,0.005v1.227c-0.58,0-0.967,0.186-1.152,0.556c-0.189,0.37-0.283,0.729-0.283,1.077L107.126,120.287
			L107.126,120.287z"/>
		<path d="M112.855,120.287h-1.142v-6.831h1.142V120.287z"/>
		<path d="M120.889,120.287h-1.087c-0.098-0.307-0.155-0.648-0.176-1.021c-0.304,0.75-0.874,1.127-1.71,1.127
			c-0.505,0-0.908-0.147-1.216-0.445c-0.304-0.293-0.456-0.665-0.456-1.111c0-1.162,1.02-1.742,3.058-1.742
			c0.079,0,0.188,0.002,0.324,0.006v-0.381c0-0.523-0.356-0.785-1.067-0.785c-0.695,0-1.091,0.262-1.184,0.785l-0.971-0.145
			c0.054-0.422,0.271-0.766,0.652-1.039c0.379-0.271,0.928-0.408,1.647-0.408c0.392,0,0.709,0.033,0.957,0.1
			c0.246,0.064,0.455,0.174,0.625,0.33c0.171,0.153,0.288,0.322,0.354,0.504c0.064,0.182,0.098,0.49,0.098,0.924v2.281
			C120.738,119.598,120.787,119.938,120.889,120.287z M119.626,117.715c-1.476,0-2.212,0.354-2.212,1.057
			c0,0.209,0.074,0.391,0.223,0.537c0.148,0.15,0.375,0.224,0.676,0.224c0.433,0,0.761-0.138,0.98-0.412
			c0.223-0.277,0.333-0.588,0.333-0.938V117.715L119.626,117.715z"/>
		<path d="M128.625,120.287h-1.143v-3.158c0-0.332-0.076-0.586-0.229-0.754c-0.154-0.166-0.338-0.253-0.555-0.253
			c-0.299,0-0.559,0.132-0.781,0.392c-0.225,0.26-0.336,0.653-0.336,1.178v2.597h-1.141v-5.054h1.039v1.17
			c0.365-0.85,0.875-1.276,1.533-1.276c0.441,0,0.822,0.142,1.137,0.422c0.316,0.28,0.475,0.772,0.475,1.476V120.287
			L128.625,120.287z"/>
		<path d="M136.48,120.287h-1.065v-1.021c-0.294,0.75-0.79,1.127-1.491,1.127c-0.619,0-1.097-0.261-1.426-0.777
			c-0.331-0.516-0.495-1.159-0.495-1.924c0-0.715,0.171-1.338,0.515-1.869c0.344-0.528,0.834-0.793,1.467-0.793
			c0.65,0,1.104,0.295,1.357,0.89v-2.463h1.141v6.831H136.48z M135.342,117.307c0-0.41-0.099-0.73-0.296-0.961
			c-0.194-0.228-0.446-0.343-0.758-0.343c-0.337,0-0.601,0.147-0.789,0.44c-0.19,0.296-0.286,0.731-0.286,1.315
			c0,1.128,0.354,1.692,1.061,1.692c0.281,0,0.529-0.122,0.744-0.363c0.215-0.24,0.324-0.55,0.324-0.93V117.307L135.342,117.307z"/>
	</g>
	<g display="inline">
		<g>
			<path d="M76.493,103.566c0-0.437,0.153-0.86,0.462-1.275s0.749-0.787,1.321-1.117v-0.094c-0.299-0.164-0.564-0.393-0.792-0.688
				c-0.224-0.295-0.338-0.675-0.338-1.141c0-0.361,0.117-0.729,0.351-1.097c0.231-0.369,0.561-0.697,0.984-0.982v-0.091
				c-0.394-0.286-0.725-0.668-0.997-1.143c-0.269-0.474-0.405-1.041-0.405-1.703c0-0.618,0.12-1.172,0.36-1.662
				c0.241-0.489,0.566-0.906,0.973-1.254c0.406-0.348,0.876-0.609,1.412-0.793c0.534-0.18,1.103-0.27,1.706-0.27
				c0.617,0,1.174,0.09,1.672,0.27h4.541v1.695h-2.756c0.228,0.242,0.43,0.539,0.61,0.894c0.182,0.354,0.271,0.751,0.271,1.188
				c0,0.603-0.113,1.139-0.338,1.604c-0.227,0.469-0.536,0.861-0.927,1.187c-0.393,0.324-0.851,0.568-1.378,0.733
				c-0.526,0.166-1.092,0.25-1.695,0.25c-0.27,0-0.561-0.031-0.871-0.092c-0.307-0.06-0.612-0.15-0.914-0.271
				c-0.513,0.332-0.768,0.717-0.768,1.153c0,0.405,0.188,0.7,0.564,0.881c0.375,0.183,0.919,0.272,1.627,0.272h2.349
				c1.448,0,2.519,0.207,3.222,0.619c0.7,0.414,1.05,1.099,1.05,2.045c0,0.528-0.148,1.024-0.44,1.492
				c-0.295,0.467-0.713,0.877-1.255,1.231c-0.542,0.353-1.197,0.633-1.967,0.836c-0.767,0.204-1.626,0.305-2.575,0.305
				c-1.568,0-2.801-0.252-3.705-0.758C76.946,105.289,76.493,104.546,76.493,103.566z M78.389,103.297
				c0,0.526,0.291,0.951,0.871,1.276c0.581,0.323,1.42,0.485,2.519,0.485c0.587,0,1.118-0.057,1.593-0.17
				c0.475-0.111,0.882-0.263,1.221-0.451c0.34-0.188,0.597-0.404,0.779-0.645c0.181-0.24,0.271-0.496,0.271-0.77
				c0-0.48-0.2-0.801-0.598-0.959c-0.399-0.159-0.999-0.236-1.796-0.236h-1.943c-0.346,0-0.654-0.012-0.925-0.034
				c-0.272-0.022-0.529-0.071-0.769-0.147c-0.454,0.256-0.769,0.521-0.951,0.791C78.482,102.709,78.389,102.994,78.389,103.297z
				 M81.531,96.631c0.633,0,1.174-0.209,1.628-0.632c0.451-0.423,0.677-1.009,0.677-1.763c0-0.725-0.227-1.303-0.677-1.739
				c-0.455-0.437-0.995-0.656-1.628-0.656c-0.633,0-1.175,0.22-1.627,0.656c-0.451,0.437-0.678,1.017-0.678,1.739
				c0,0.754,0.228,1.34,0.678,1.763C80.355,96.422,80.897,96.631,81.531,96.631z"/>
		</g>
		<path d="M58.166,101.879h-1.894l-0.186-1.893h-0.094c-0.562,0.654-1.174,1.18-1.835,1.578c-0.662,0.396-1.429,0.595-2.302,0.595
			c-1.355,0-2.346-0.392-2.968-1.181c-0.624-0.785-0.935-1.936-0.935-3.446v-5.739l-3.025-0.059l5.362-2.064l-0.023,1.561v5.998
			c0,1.015,0.179,1.758,0.539,2.232c0.358,0.477,0.973,0.714,1.846,0.714c0.593,0,1.133-0.146,1.625-0.435
			c0.49-0.288,1.018-0.775,1.578-1.46v-7.831h2.314v11.43H58.166z"/>
		<path d="M62.46,90.449h1.893l0.187,1.848h0.092c0.577-0.594,1.2-1.096,1.871-1.508c0.668-0.413,1.45-0.62,2.338-0.62
			c1.339,0,2.322,0.397,2.945,1.19c0.623,0.795,0.936,1.941,0.936,3.438v7.081h-2.315v-6.776c0-0.996-0.178-1.733-0.536-2.207
			c-0.358-0.478-0.974-0.717-1.847-0.717c-0.608,0-1.153,0.155-1.637,0.457c-0.482,0.305-1.022,0.76-1.613,1.368v7.875H62.46V90.449
			L62.46,90.449z"/>
		<path d="M100.392,96.177c0-0.936,0.165-1.772,0.491-2.514c0.327-0.739,0.764-1.372,1.311-1.894
			c0.543-0.521,1.168-0.92,1.869-1.191s1.426-0.409,2.172-0.409c0.844,0,1.586,0.133,2.234,0.397
			c0.646,0.266,1.195,0.634,1.647,1.107c0.452,0.479,0.795,1.047,1.028,1.709c0.231,0.661,0.351,1.391,0.351,2.184
			c0,0.236-0.013,0.457-0.036,0.668s-0.049,0.386-0.082,0.523h-8.604c0.08,1.122,0.496,2,1.254,2.631
			c0.756,0.633,1.707,0.945,2.861,0.945c0.625,0,1.203-0.085,1.741-0.258c0.539-0.169,1.065-0.41,1.577-0.721l0.818,1.471
			c-0.59,0.375-1.258,0.689-1.998,0.947c-0.74,0.256-1.557,0.385-2.443,0.385c-0.857,0-1.662-0.137-2.417-0.408
			c-0.757-0.271-1.413-0.665-1.976-1.18c-0.562-0.514-1.002-1.143-1.322-1.883C100.552,97.947,100.392,97.109,100.392,96.177z
			 M109.346,95.172c0-1.029-0.268-1.816-0.797-2.363c-0.529-0.543-1.285-0.814-2.267-0.814c-0.857,0-1.621,0.271-2.291,0.814
			c-0.671,0.547-1.084,1.334-1.238,2.363H109.346z"/>
		<path d="M120.023,90.088l0.006,12.025h-2.313v-8.779h-4.34L120.023,90.088z M118.675,87.73c-0.5,0-0.911-0.148-1.239-0.444
			c-0.326-0.296-0.49-0.694-0.49-1.191c0-0.499,0.164-0.899,0.49-1.202c0.328-0.306,0.739-0.457,1.239-0.457
			c0.497,0,0.912,0.151,1.238,0.457c0.327,0.303,0.491,0.703,0.491,1.202c0,0.497-0.164,0.896-0.491,1.191
			S119.172,87.73,118.675,87.73z"/>
		<path d="M124.159,96.409c0-0.95,0.172-1.8,0.516-2.548c0.343-0.747,0.812-1.379,1.403-1.896c0.591-0.513,1.271-0.899,2.045-1.167
			c0.771-0.264,1.593-0.396,2.465-0.396c0.936,0,1.753,0.16,2.455,0.479c0.702,0.319,1.287,0.707,1.754,1.158l-1.122,1.472
			c-0.452-0.375-0.922-0.666-1.405-0.876c-0.479-0.211-1.004-0.314-1.564-0.314c-0.605,0-1.167,0.098-1.682,0.293
			c-0.514,0.193-0.955,0.471-1.32,0.828c-0.365,0.358-0.648,0.791-0.854,1.299c-0.203,0.506-0.304,1.063-0.304,1.67
			c0,0.607,0.097,1.167,0.292,1.673c0.194,0.506,0.475,0.938,0.842,1.297c0.366,0.356,0.799,0.636,1.297,0.83
			c0.5,0.192,1.051,0.29,1.66,0.29c0.699,0,1.332-0.131,1.893-0.396s1.066-0.584,1.521-0.959l0.982,1.496
			c-0.655,0.562-1.372,0.994-2.151,1.297c-0.779,0.305-1.591,0.457-2.432,0.457c-0.889,0-1.717-0.134-2.488-0.397
			c-0.771-0.265-1.438-0.654-2-1.169c-0.561-0.516-1-1.143-1.318-1.883C124.32,98.206,124.159,97.361,124.159,96.409z"/>
		<path d="M136.066,85.607l4.847-2.403v6.731l-0.142,2.569c0.578-0.591,1.199-1.091,1.871-1.495c0.67-0.404,1.449-0.605,2.338-0.605
			c1.34,0,2.321,0.396,2.943,1.19c0.622,0.796,0.936,1.94,0.936,3.438v7.081h-2.313v-6.779c0-0.997-0.179-1.732-0.538-2.208
			c-0.357-0.476-0.972-0.714-1.845-0.714c-0.608,0-1.154,0.15-1.638,0.456c-0.482,0.304-1.021,0.76-1.612,1.368v7.875H138.6
			l-0.05-16.604L136.066,85.607z"/>
		<g>
			<polygon fill="#040000" points="149.295,80.439 148.516,82.068 158.204,82.107 158.984,80.449 			"/>
			<polygon fill="#040000" points="148.527,83.993 147.725,85.701 157.427,85.721 158.204,84.031 			"/>
			<polygon fill="#040000" points="150.42,87.641 154.863,78.178 156.576,78.202 152.184,87.643 			"/>
		</g>
		<g>
			<path d="M94.134,98.162c0,0.768,0.192,1.32,0.577,1.661c0.384,0.338,0.884,0.509,1.502,0.509c0.301,0,0.611-0.039,0.927-0.115
				c0.316-0.074,0.671-0.195,1.062-0.361l0.542,1.675c-0.256,0.089-0.501,0.171-0.734,0.247c-0.235,0.076-0.471,0.138-0.711,0.19
				c-0.241,0.054-0.494,0.099-0.756,0.136c-0.265,0.037-0.554,0.059-0.87,0.059c-1.236,0-2.173-0.354-2.814-1.062
				c-0.64-0.709-0.959-1.73-0.959-3.072V82.98h-3.615l5.85-4.123"/>
		</g>
	</g>
	<g display="inline">
		<polygon fill="#E71F19" points="86.724,43.61 86.774,69.98 111.895,69.929 111.994,43.61 		"/>
		<rect x="90.912" y="54.153" fill="#FFFFFF" width="16.836" height="5.188"/>
		<rect x="96.849" y="47.991" fill="#FFFFFF" width="4.982" height="17.567"/>
	</g>
	<path display="inline" d="M56.763,35.194c0.304-0.325,0.611-0.645,0.92-0.961c1.161,1.135,2.321,2.271,3.482,3.405
		c0.761-0.778,1.538-1.531,2.332-2.256c0.193,0.211,0.386,0.423,0.579,0.634c-1.074,0.982-2.119,2.015-3.131,3.095
		C59.55,37.805,58.156,36.5,56.763,35.194z"/>
	<path display="inline" d="M61.615,32.861c0.86-0.855,1.739-1.68,2.639-2.475c0.947,1.076,1.895,2.152,2.843,3.229
		c-0.292,0.259-0.583,0.521-0.873,0.787c-0.79-0.86-1.58-1.72-2.37-2.581c-0.568,0.523-1.127,1.058-1.677,1.606
		C61.99,33.238,61.803,33.05,61.615,32.861z M63.208,30.311c-0.193,0.174-0.395,0.276-0.606,0.305
		c-0.212,0.029-0.388-0.031-0.527-0.181c-0.139-0.149-0.187-0.331-0.141-0.544c0.046-0.213,0.167-0.41,0.364-0.588
		c0.203-0.183,0.411-0.285,0.625-0.306c0.213-0.021,0.386,0.046,0.521,0.2c0.135,0.153,0.177,0.333,0.131,0.539
		C63.529,29.94,63.406,30.131,63.208,30.311z"/>
	<path display="inline" d="M66.417,29.18c0.265-0.22,0.533-0.438,0.802-0.652c0.16,0.148,0.32,0.297,0.48,0.446
		c0.011-0.009,0.022-0.018,0.033-0.027c0.069-0.316,0.179-0.627,0.33-0.933c0.152-0.305,0.393-0.583,0.723-0.83
		c0.492-0.367,0.948-0.507,1.354-0.428c0.408,0.08,0.77,0.353,1.091,0.812c0.509,0.728,1.018,1.455,1.526,2.183
		c-0.317,0.222-0.632,0.447-0.945,0.676c-0.498-0.682-0.995-1.363-1.494-2.044c-0.207-0.283-0.416-0.447-0.627-0.49
		c-0.212-0.043-0.465,0.043-0.754,0.263c-0.205,0.154-0.355,0.333-0.453,0.534c-0.096,0.201-0.177,0.457-0.238,0.766
		c0.608,0.767,1.215,1.534,1.823,2.301c-0.306,0.242-0.609,0.488-0.91,0.737C68.244,31.391,67.33,30.285,66.417,29.18z"/>
	<path display="inline" d="M78.77,26.978c-0.279,0.137-0.556,0.277-0.833,0.418c-0.131-0.188-0.261-0.377-0.394-0.566
		c-0.011,0.006-0.024,0.012-0.035,0.019c-0.098,0.32-0.236,0.608-0.415,0.866c-0.178,0.257-0.425,0.473-0.743,0.65
		c-0.498,0.277-0.93,0.354-1.307,0.227s-0.711-0.429-0.999-0.911c-0.455-0.762-0.909-1.525-1.363-2.288
		c0.354-0.211,0.709-0.418,1.066-0.621c0.417,0.734,0.834,1.468,1.251,2.201c0.173,0.305,0.36,0.492,0.559,0.564
		c0.2,0.072,0.449,0.024,0.75-0.14c0.206-0.112,0.368-0.253,0.488-0.423c0.12-0.169,0.222-0.411,0.31-0.727
		c-0.445-0.857-0.891-1.716-1.336-2.574c0.364-0.189,0.729-0.374,1.095-0.554C77.5,24.406,78.136,25.692,78.77,26.978z"/>
	<path display="inline" d="M81.244,23.314c-0.806-0.386-1.626-0.755-2.462-1.106c0.396-0.199,0.795-0.393,1.194-0.583
		c0.322,0.148,0.641,0.298,0.958,0.452c0.125,0.071,0.257,0.144,0.398,0.218s0.279,0.148,0.418,0.22
		c0.013-0.005,0.025-0.011,0.038-0.017c0.019-0.143,0.042-0.291,0.073-0.446c0.031-0.153,0.057-0.299,0.08-0.437
		c0.078-0.327,0.158-0.654,0.241-0.981c0.393-0.167,0.788-0.33,1.184-0.489c-0.276,0.891-0.531,1.782-0.763,2.673
		c0.843,0.407,1.668,0.833,2.477,1.274c-0.381,0.152-0.76,0.308-1.137,0.468c-0.325-0.17-0.653-0.337-0.983-0.501
		c-0.133-0.069-0.274-0.144-0.423-0.225c-0.15-0.081-0.296-0.156-0.438-0.226c-0.013,0.005-0.025,0.011-0.038,0.017
		c-0.033,0.156-0.062,0.309-0.086,0.458s-0.05,0.305-0.078,0.465c-0.076,0.344-0.148,0.688-0.217,1.032
		c-0.359,0.171-0.717,0.347-1.073,0.526C80.794,25.176,81.006,24.245,81.244,23.314z"/>
	<path display="inline" d="M90.795,18.426c0.414-0.049,0.828-0.095,1.242-0.136c0.12,1.2,0.239,2.4,0.359,3.6
		c0.047,0.471,0.182,0.799,0.399,0.987c0.218,0.188,0.499,0.266,0.849,0.239c0.355-0.029,0.627-0.15,0.819-0.371
		c0.191-0.221,0.274-0.566,0.247-1.039c-0.072-1.203-0.145-2.408-0.216-3.611c0.397-0.022,0.795-0.043,1.193-0.059
		c0.048,1.179,0.095,2.357,0.143,3.536c0.032,0.788-0.143,1.373-0.509,1.763c-0.368,0.39-0.9,0.605-1.605,0.662
		c-0.693,0.055-1.253-0.076-1.692-0.404c-0.438-0.328-0.71-0.876-0.804-1.654C91.077,20.768,90.937,19.597,90.795,18.426z"/>
	<path display="inline" d="M98.099,19.342c0.332-0.011,0.665-0.019,0.997-0.024c0.035,0.215,0.07,0.431,0.105,0.646
		c0.014,0,0.028,0,0.041,0c0.24-0.208,0.508-0.387,0.805-0.535c0.296-0.149,0.646-0.222,1.047-0.216
		c0.598,0.011,1.03,0.176,1.297,0.487c0.269,0.312,0.385,0.749,0.358,1.309c-0.04,0.887-0.08,1.773-0.121,2.66
		c-0.376-0.017-0.754-0.03-1.131-0.04c0.021-0.844,0.044-1.687,0.063-2.53c0.01-0.351-0.055-0.607-0.191-0.771
		s-0.385-0.249-0.736-0.252c-0.249-0.002-0.471,0.046-0.663,0.146c-0.192,0.099-0.406,0.253-0.636,0.46
		c0.013,0.978,0.025,1.956,0.037,2.934c-0.377,0.005-0.755,0.014-1.132,0.026C98.193,22.208,98.146,20.775,98.099,19.342z"/>
	<path display="inline" d="M104.418,19.466c1.146,0.082,2.29,0.197,3.43,0.345c-0.184,1.421-0.367,2.843-0.553,4.266
		c-0.372-0.049-0.743-0.093-1.115-0.134c0.127-1.161,0.254-2.322,0.381-3.482c-0.731-0.081-1.465-0.147-2.199-0.199
		C104.38,19.996,104.4,19.731,104.418,19.466z M107.249,18.978c-0.247-0.029-0.446-0.113-0.601-0.252
		c-0.152-0.14-0.219-0.311-0.198-0.514s0.122-0.359,0.305-0.465s0.399-0.146,0.652-0.116c0.26,0.03,0.464,0.119,0.612,0.265
		s0.209,0.32,0.184,0.523c-0.027,0.203-0.13,0.354-0.309,0.455C107.716,18.972,107.501,19.007,107.249,18.978z"/>
	<path display="inline" d="M111.764,22.555c-0.414-0.787-0.848-1.571-1.305-2.349c0.434,0.075,0.863,0.155,1.295,0.239
		c0.167,0.311,0.333,0.621,0.495,0.932c0.06,0.131,0.12,0.268,0.188,0.411c0.067,0.143,0.135,0.284,0.203,0.425
		c0.012,0.003,0.025,0.006,0.039,0.009c0.102-0.104,0.207-0.209,0.323-0.315c0.115-0.105,0.224-0.208,0.323-0.304
		c0.256-0.217,0.515-0.433,0.775-0.647c0.414,0.099,0.828,0.202,1.239,0.309c-0.752,0.553-1.485,1.119-2.2,1.698
		c0.434,0.827,0.842,1.659,1.227,2.494c-0.396-0.104-0.792-0.203-1.188-0.298c-0.16-0.329-0.322-0.658-0.49-0.986
		c-0.064-0.135-0.133-0.278-0.203-0.432c-0.072-0.154-0.146-0.301-0.219-0.442c-0.013-0.003-0.024-0.006-0.037-0.009
		c-0.121,0.105-0.233,0.211-0.34,0.317c-0.108,0.105-0.222,0.214-0.341,0.327c-0.263,0.232-0.524,0.466-0.782,0.702
		c-0.387-0.075-0.775-0.146-1.164-0.212C110.303,23.788,111.021,23.164,111.764,22.555z"/>
	<path display="inline" d="M121.896,22.412c1.332,0.719,2.642,1.488,3.924,2.309c-0.153,0.241-0.309,0.482-0.463,0.723
		c-0.912-0.583-1.838-1.141-2.775-1.672c-0.266,0.47-0.533,0.94-0.799,1.41c0.775,0.44,1.544,0.898,2.302,1.375
		c-0.151,0.242-0.304,0.484-0.456,0.727c-0.748-0.47-1.504-0.921-2.27-1.354c-0.395,0.693-0.785,1.387-1.18,2.081
		c-0.334-0.188-0.668-0.374-1.007-0.556C120.081,25.773,120.99,24.092,121.896,22.412z"/>
	<path display="inline" d="M126.291,31.342c-0.329-0.193-0.598-0.427-0.809-0.703c-0.207-0.276-0.351-0.58-0.424-0.917
		c-0.074-0.335-0.082-0.697-0.024-1.083c0.058-0.386,0.194-0.786,0.413-1.2c0.215-0.407,0.467-0.742,0.759-1
		c0.292-0.259,0.604-0.44,0.938-0.545c0.332-0.104,0.686-0.129,1.057-0.075c0.369,0.054,0.738,0.189,1.102,0.403
		c0.364,0.214,0.66,0.472,0.891,0.771c0.228,0.298,0.379,0.62,0.451,0.965c0.072,0.344,0.067,0.707-0.017,1.087
		c-0.084,0.382-0.252,0.765-0.504,1.151c-0.257,0.392-0.541,0.703-0.853,0.939c-0.31,0.238-0.631,0.404-0.963,0.501
		c-0.332,0.097-0.668,0.12-1.012,0.069C126.952,31.657,126.618,31.535,126.291,31.342z M126.74,30.579
		c0.18,0.107,0.369,0.163,0.57,0.167c0.199,0.005,0.399-0.039,0.603-0.131c0.2-0.092,0.399-0.23,0.597-0.415
		c0.195-0.184,0.379-0.413,0.549-0.685c0.338-0.545,0.492-1.043,0.452-1.498c-0.04-0.454-0.261-0.8-0.657-1.034
		c-0.396-0.234-0.805-0.257-1.22-0.072c-0.413,0.185-0.774,0.562-1.087,1.123c-0.154,0.281-0.27,0.552-0.337,0.811
		c-0.067,0.259-0.095,0.5-0.079,0.72c0.018,0.221,0.076,0.417,0.178,0.59C126.408,30.329,126.552,30.469,126.74,30.579z"/>
	<path display="inline" d="M130.777,32.405c0.101,0.306,0.246,0.599,0.437,0.884c0.19,0.286,0.417,0.525,0.683,0.724
		c0.332,0.248,0.621,0.386,0.873,0.412c0.254,0.025,0.447-0.048,0.584-0.223c0.072-0.091,0.111-0.188,0.117-0.287
		s-0.012-0.205-0.058-0.316c-0.043-0.111-0.106-0.232-0.188-0.362c-0.084-0.13-0.179-0.268-0.281-0.412
		c-0.186-0.28-0.371-0.561-0.562-0.838c-0.114-0.157-0.221-0.322-0.315-0.497c-0.094-0.175-0.164-0.354-0.211-0.537
		c-0.047-0.183-0.062-0.365-0.039-0.549c0.021-0.184,0.092-0.363,0.211-0.536c0.13-0.188,0.299-0.328,0.515-0.417
		c0.214-0.09,0.453-0.131,0.719-0.123c0.267,0.01,0.55,0.071,0.851,0.187c0.298,0.116,0.6,0.286,0.899,0.513
		c0.36,0.271,0.662,0.585,0.905,0.942c0.24,0.356,0.41,0.719,0.509,1.085c-0.312,0.026-0.618,0.055-0.928,0.086
		c-0.097-0.27-0.224-0.522-0.38-0.755c-0.158-0.231-0.37-0.45-0.637-0.65c-0.304-0.227-0.58-0.355-0.824-0.386
		c-0.246-0.031-0.43,0.04-0.553,0.211c-0.064,0.09-0.094,0.187-0.088,0.288c0.008,0.104,0.039,0.212,0.096,0.328
		c0.053,0.115,0.127,0.236,0.219,0.362c0.091,0.125,0.186,0.257,0.279,0.394c0.184,0.273,0.365,0.548,0.545,0.824
		c0.135,0.192,0.244,0.383,0.332,0.572c0.09,0.19,0.147,0.375,0.176,0.556c0.031,0.181,0.023,0.358-0.021,0.529
		c-0.043,0.172-0.133,0.339-0.266,0.502c-0.146,0.181-0.33,0.314-0.549,0.399c-0.217,0.087-0.458,0.123-0.721,0.11
		c-0.265-0.013-0.543-0.078-0.842-0.195c-0.299-0.117-0.603-0.291-0.912-0.523c-0.375-0.28-0.692-0.603-0.957-0.969
		c-0.265-0.367-0.461-0.754-0.586-1.165C130.129,32.516,130.452,32.459,130.777,32.405z"/>
	<path display="inline" d="M135.738,36.292c0.068,0.317,0.187,0.629,0.35,0.938c0.162,0.309,0.366,0.577,0.613,0.809
		c0.311,0.289,0.586,0.462,0.838,0.519c0.252,0.056,0.455,0.006,0.609-0.152c0.082-0.083,0.131-0.175,0.146-0.273
		c0.017-0.099,0.009-0.207-0.024-0.323c-0.031-0.117-0.084-0.246-0.154-0.386c-0.069-0.141-0.15-0.289-0.242-0.447
		c-0.157-0.303-0.316-0.606-0.479-0.908c-0.101-0.17-0.188-0.348-0.267-0.535c-0.077-0.186-0.131-0.373-0.16-0.562
		c-0.03-0.188-0.022-0.373,0.017-0.555c0.041-0.181,0.129-0.353,0.268-0.511c0.146-0.173,0.333-0.292,0.559-0.355
		c0.225-0.063,0.471-0.077,0.735-0.036c0.269,0.041,0.547,0.137,0.837,0.289c0.289,0.152,0.573,0.359,0.854,0.623
		c0.338,0.315,0.609,0.668,0.816,1.055s0.342,0.772,0.404,1.151c-0.316-0.011-0.629-0.02-0.941-0.026
		c-0.07-0.283-0.175-0.552-0.309-0.805c-0.137-0.253-0.326-0.497-0.575-0.729c-0.28-0.264-0.546-0.425-0.791-0.487
		c-0.243-0.061-0.437-0.011-0.577,0.145c-0.074,0.082-0.111,0.175-0.115,0.278c-0.004,0.103,0.018,0.216,0.061,0.339
		c0.044,0.123,0.105,0.252,0.184,0.39c0.082,0.137,0.162,0.28,0.244,0.43c0.156,0.296,0.312,0.593,0.465,0.892
		c0.113,0.208,0.207,0.414,0.277,0.615c0.07,0.201,0.11,0.395,0.121,0.58c0.012,0.185-0.014,0.361-0.075,0.528
		c-0.061,0.167-0.167,0.324-0.315,0.471c-0.168,0.163-0.365,0.274-0.594,0.333c-0.228,0.059-0.475,0.066-0.738,0.021
		s-0.538-0.145-0.827-0.299c-0.288-0.154-0.576-0.366-0.863-0.635c-0.351-0.327-0.639-0.688-0.866-1.086
		c-0.229-0.399-0.387-0.81-0.473-1.237C135.074,36.326,135.406,36.307,135.738,36.292z"/>
	<g display="inline">
		<path d="M86.908,21.56c0-0.24,0.077-0.439,0.23-0.595c0.153-0.156,0.347-0.234,0.583-0.234c0.235,0,0.429,0.078,0.583,0.234
			c0.153,0.156,0.23,0.354,0.23,0.595c0,0.241-0.077,0.439-0.23,0.596c-0.153,0.156-0.347,0.234-0.583,0.234
			c-0.236,0-0.43-0.078-0.583-0.234C86.984,22,86.908,21.801,86.908,21.56z"/>
	</g>
	<g display="inline">
		<path d="M116.873,23.635c0-0.241,0.077-0.438,0.229-0.596c0.153-0.156,0.349-0.234,0.584-0.234c0.236,0,0.43,0.078,0.582,0.234
			c0.154,0.156,0.231,0.354,0.231,0.596c0,0.242-0.077,0.439-0.231,0.596c-0.152,0.156-0.346,0.233-0.582,0.233
			c-0.235,0-0.431-0.078-0.584-0.233C116.95,24.074,116.873,23.876,116.873,23.635z"/>
	</g>
</g>
<g id="Layer_2">
	<g id="Layer_1_2_" display="none">
		<g id="Layer_3" display="inline">
			<rect x="5.833" y="33.05" width="352.748" height="63.199"/>
		</g>
		<g id="Layer_2_2_" display="inline">
			<path fill="#FFFFFF" d="M202.999,46.456c0.334,0,0.493,0.163,0.493,0.493v5.401c0,0.327-0.159,0.49-0.493,0.49h-15.027
				c-0.292,0-0.644,0.123-1.033,0.367c-0.39,0.251-0.761,0.559-1.108,0.933c-0.343,0.378-0.634,0.769-0.883,1.181
				c-0.244,0.409-0.361,0.759-0.361,1.055v12.819c0,1.804,0.404,3.255,1.226,4.37c0.817,1.113,1.868,1.665,3.146,1.665h5.99
				c0.625,0,1.174-0.113,1.648-0.343c0.475-0.23,0.863-0.51,1.179-0.838c0.31-0.327,0.544-0.681,0.685-1.054
				c0.15-0.375,0.226-0.709,0.226-1.005v-4.569c0-0.329-0.159-0.496-0.488-0.496h-8.009c-0.324,0-0.488-0.161-0.488-0.489v-5.402
				c0-0.327,0.164-0.493,0.488-0.493h15.271c0.334,0,0.488,0.166,0.488,0.493v11.054c0,0.747-0.169,1.676-0.516,2.772
				c-0.343,1.098-0.911,2.143-1.69,3.143c-0.789,1.005-1.826,1.856-3.122,2.58c-1.296,0.721-2.901,1.078-4.836,1.078h-8.549
				c-1.568,0-2.958-0.357-4.169-1.078c-1.213-0.724-2.238-1.629-3.069-2.729c-0.838-1.096-1.465-2.307-1.888-3.636
				c-0.423-1.329-0.644-2.61-0.644-3.854V56.424c0-1.083,0.24-2.211,0.719-3.39c0.472-1.177,1.117-2.257,1.939-3.24
				c0.818-0.982,1.77-1.785,2.849-2.409c1.079-0.622,2.239-0.934,3.487-0.934h10.165L202.999,46.456L202.999,46.456z"/>
			<path fill="#FFFFFF" d="M213.656,44.424h5.244c0.348,0,0.517,0.17,0.517,0.515v30.445v0.103v5.235
				c0,0.347-0.169,0.516-0.517,0.516h-5.244c-0.338,0-0.512-0.169-0.512-0.516v-5.235v-0.103V44.939
				C213.149,44.594,213.323,44.424,213.656,44.424z"/>
			<path fill="#FFFFFF" d="M227.723,54.614h14.474c1.301,0,2.404,0.28,3.314,0.849c0.906,0.564,1.648,1.291,2.207,2.18
				c0.563,0.89,0.977,1.883,1.234,2.981c0.254,1.09,0.386,2.189,0.386,3.286v16.944c0,0.338-0.17,0.512-0.513,0.512h-17.92
				c-1.028,0-1.863-0.314-2.517-0.953c-0.652-0.629-1.154-1.375-1.516-2.229c-0.353-0.859-0.606-1.712-0.747-2.568
				c-0.141-0.85-0.202-1.502-0.202-1.951c0-0.822,0.099-1.73,0.306-2.721c0.206-0.993,0.53-1.906,0.972-2.748
				c0.451-0.839,1.033-1.553,1.751-2.135c0.719-0.579,1.592-0.872,2.62-0.872h8.572c0.888,0,1.602-0.211,2.132-0.642
				c0.53-0.426,0.798-0.931,0.798-1.512c0-0.479-0.174-0.956-0.517-1.44c-0.347-0.477-0.788-0.716-1.338-0.716h-13.497
				c-0.353,0-0.517-0.174-0.517-0.514v-5.233C227.201,54.782,227.375,54.614,227.723,54.614z M242.558,75.356
				c0.343,0,0.517-0.169,0.517-0.512V71.76c0-0.343-0.174-0.509-0.517-0.509h-9.141c-0.479,0-0.873,0.2-1.179,0.589
				c-0.31,0.394-0.464,0.828-0.464,1.31c0,0.582,0.169,1.096,0.516,1.54c0.343,0.446,0.817,0.667,1.441,0.667H242.558
				L242.558,75.356z"/>
			<path fill="#FFFFFF" d="M269.45,54.617c0.343,0,0.512,0.17,0.512,0.512v5.238c0,0.343-0.169,0.514-0.512,0.514h-4.935
				c-0.305,0-0.582,0.084-0.816,0.252c-0.244,0.175-0.456,0.37-0.648,0.594c-0.183,0.221-0.333,0.461-0.437,0.716
				c-0.104,0.259-0.15,0.488-0.15,0.697v17.713c0,0.343-0.174,0.512-0.517,0.512h-5.751c-0.347,0-0.517-0.174-0.517-0.512V61.344
				c0-0.892,0.179-1.75,0.545-2.569c0.353-0.823,0.85-1.542,1.46-2.156c0.615-0.616,1.338-1.104,2.155-1.461
				c0.821-0.359,1.694-0.541,2.624-0.541H269.45L269.45,54.617L269.45,54.617z"/>
			<path fill="#FFFFFF" d="M292.778,54.486h5.239c0.348,0,0.517,0.171,0.517,0.512v20.231c0,1.099-0.338,2.042-1,2.829
				c-0.662,0.776-1.549,1.438-2.619,1.95c-1.075,0.512-2.291,0.892-3.653,1.132c-1.347,0.239-2.713,0.357-4.079,0.357
				c-1.404,0-2.774-0.126-4.132-0.357c-1.348-0.24-2.559-0.62-3.624-1.132c-1.062-0.517-1.921-1.165-2.592-1.95
				c-0.667-0.789-1-1.735-1-2.829V55c0-0.343,0.169-0.512,0.512-0.512h5.239c0.348,0,0.517,0.171,0.517,0.512v18.022
				c0,0.306,0.15,0.601,0.441,0.874c0.286,0.27,0.667,0.512,1.132,0.718c0.455,0.202,1,0.357,1.624,0.46
				c0.615,0.106,1.249,0.155,1.892,0.155c0.653,0,1.272-0.052,1.878-0.155c0.597-0.103,1.132-0.258,1.615-0.46
				c0.479-0.207,0.859-0.448,1.155-0.718c0.291-0.277,0.441-0.568,0.441-0.874V55C292.271,54.658,292.44,54.486,292.778,54.486z"/>
			<path fill="#FFFFFF" d="M303.699,74.971h14.121c0.479,0,0.855-0.075,1.127-0.23c0.277-0.15,0.488-0.348,0.648-0.587
				c0.164-0.239,0.248-0.507,0.281-0.793c0.038-0.296,0.052-0.559,0.052-0.798c0-0.446-0.108-0.89-0.338-1.333
				c-0.221-0.446-0.671-0.669-1.353-0.669h-8.061c-1.23,0-2.272-0.197-3.132-0.592c-0.854-0.393-1.544-0.942-2.056-1.642
				c-0.517-0.702-0.893-1.54-1.132-2.514c-0.239-0.975-0.361-2.044-0.361-3.209c0-1.709,0.202-3.094,0.592-4.158
				c0.394-1.062,0.99-1.881,1.798-2.464c0.803-0.582,1.831-0.977,3.08-1.181c1.248-0.204,2.751-0.308,4.492-0.308h11.085
				c0.348,0,0.521,0.172,0.521,0.512v5.238c0,0.342-0.173,0.512-0.521,0.512h-13.451c-0.549,0-0.943,0.197-1.178,0.587
				c-0.244,0.399-0.357,0.833-0.357,1.31c0,0.447,0.127,0.892,0.386,1.337c0.253,0.445,0.638,0.667,1.149,0.667h7.493
				c1.338,0,2.483,0.147,3.446,0.436c0.953,0.291,1.737,0.782,2.338,1.466c0.597,0.683,1.042,1.616,1.333,2.795
				c0.296,1.181,0.437,2.665,0.437,4.444c0,0.512-0.075,1.192-0.229,2.029c-0.15,0.842-0.437,1.661-0.846,2.464
				c-0.417,0.804-0.985,1.503-1.728,2.078c-0.737,0.584-1.681,0.87-2.85,0.87h-16.788c-0.343,0-0.512-0.169-0.512-0.512v-5.239
				C303.188,75.147,303.356,74.971,303.699,74.971z"/>
			<path fill="#FFFFFF" d="M9.975,80.994V47.126c0-0.324,0.161-0.487,0.485-0.487h16.571c1.846,0,3.442,0.354,4.789,1.067
				c1.344,0.713,2.452,1.64,3.326,2.771c0.878,1.135,1.515,2.427,1.919,3.887c0.406,1.457,0.608,2.93,0.608,4.42V70.45
				c0,1.258-0.202,2.549-0.608,3.859c-0.404,1.314-1.043,2.507-1.919,3.57c-0.875,1.064-1.976,1.941-3.305,2.6
				c-1.329,0.662-2.913,0.996-4.759,0.996H10.46C10.136,81.479,9.975,81.318,9.975,80.994z M17.02,74.678
				c0,0.326,0.162,0.488,0.486,0.488h8.697c0.517,0,1.048-0.144,1.579-0.416c0.537-0.275,1.012-0.634,1.436-1.066
				c0.42-0.439,0.759-0.927,1.021-1.46c0.257-0.535,0.387-1.07,0.387-1.629V57.669c0-0.584-0.146-1.157-0.438-1.724
				c-0.293-0.567-0.666-1.067-1.117-1.505c-0.455-0.44-0.966-0.796-1.534-1.071c-0.567-0.275-1.141-0.411-1.723-0.411h-8.31
				c-0.324,0-0.486,0.161-0.486,0.485L17.02,74.678L17.02,74.678L17.02,74.678z"/>
			<path fill="#FFFFFF" d="M43.461,48.188c0-0.428,0.171-0.646,0.513-0.646h5.237c0.341,0,0.514,0.213,0.514,0.646v32.304
				c0,0.432-0.173,0.644-0.514,0.644h-5.237c-0.344,0-0.513-0.212-0.513-0.644V48.188z"/>
			<path fill="#FFFFFF" d="M58.259,85.854h13.863c0.441,0,0.788-0.122,1.026-0.352c0.241-0.249,0.421-0.53,0.541-0.85
				c0.12-0.329,0.188-0.686,0.204-1.08c0.017-0.399,0.027-0.747,0.027-1.052v-1.283h-7.649c-1.337,0-2.663-0.274-3.981-0.826
				c-1.317-0.552-2.507-1.359-3.567-2.443c-1.06-1.072-1.925-2.398-2.594-3.956c-0.666-1.554-1-3.347-1-5.361v-3.287
				c0-1.4,0.202-2.752,0.616-4.055c0.408-1.301,1.042-2.453,1.899-3.464c0.855-1.007,1.959-1.824,3.31-2.44
				c1.354-0.615,2.955-0.922,4.801-0.922h11.859c0.856,0,1.541,0.195,2.053,0.589c0.518,0.395,0.77,1.035,0.77,1.922v27.526
				c0,0.719-0.181,1.493-0.541,2.333c-0.358,0.851-0.849,1.606-1.461,2.315c-0.616,0.699-1.336,1.281-2.156,1.756
				c-0.823,0.455-1.695,0.685-2.619,0.685H58.257c-0.342,0-0.512-0.164-0.512-0.517v-4.718
				C57.745,86.028,57.915,85.854,58.259,85.854z M62.391,71.117c0.258,0.854,0.692,1.578,1.311,2.152
				c0.615,0.584,1.443,1.017,2.489,1.284c1.043,0.268,2.353,0.411,3.928,0.411h3.288c0.342,0,0.511-0.167,0.511-0.514V61.253
				c0-0.342-0.171-0.512-0.511-0.512h-6.728c-1.645,0-2.834,0.529-3.569,1.594c-0.736,1.06-1.103,2.512-1.103,4.365v1.331
				C62.007,69.236,62.133,70.265,62.391,71.117z"/>
			<path fill="#FFFFFF" d="M86.38,48.289c0-0.43,0.171-0.646,0.513-0.646h5.237c0.344,0,0.512,0.214,0.512,0.646v32.307
				c0,0.432-0.17,0.643-0.512,0.643h-5.237c-0.344,0-0.513-0.211-0.513-0.643V48.289z"/>
			<path fill="#FFFFFF" d="M108.09,74.384c0,0.338,0.169,0.512,0.512,0.512h4.314c0.272,0.038,0.408,0.207,0.408,0.512v5.24
				c0,0.352-0.171,0.517-0.512,0.517h-6.469c-1.303,0-2.376-0.391-3.235-1.182c-0.854-0.786-1.284-1.709-1.284-2.768V61.193
				c0-0.341-0.174-0.512-0.514-0.512h-2.72c-0.344,0-0.514-0.171-0.514-0.514v-5.24c0-0.342,0.172-0.516,0.514-0.516h2.72
				c0.343,0,0.514-0.17,0.514-0.514v-6.418c0-0.341,0.172-0.512,0.512-0.512h5.237c0.343,0,0.512,0.171,0.512,0.512v6.418
				c0,0.344,0.171,0.514,0.517,0.514h4.211c0.341,0,0.512,0.171,0.512,0.516v5.238c0,0.345-0.174,0.514-0.512,0.514h-4.211
				c-0.346,0-0.517,0.17-0.517,0.512L108.09,74.384L108.09,74.384L108.09,74.384z"/>
			<path fill="#FFFFFF" d="M120.66,54.409h14.477c1.301,0,2.404,0.284,3.311,0.85c0.91,0.567,1.645,1.292,2.206,2.184
				c0.563,0.892,0.977,1.883,1.232,2.976c0.261,1.098,0.39,2.192,0.39,3.286v16.943c0,0.352-0.174,0.517-0.52,0.517h-17.915
				c-1.028,0-1.866-0.319-2.517-0.953c-0.652-0.635-1.154-1.376-1.512-2.235c-0.361-0.854-0.609-1.709-0.746-2.563
				c-0.137-0.852-0.204-1.507-0.204-1.95c0-0.824,0.101-1.735,0.308-2.723c0.201-0.988,0.53-1.907,0.977-2.748
				c0.441-0.839,1.025-1.551,1.746-2.13c0.719-0.583,1.59-0.875,2.619-0.875h8.571c0.89,0,1.599-0.211,2.129-0.642
				c0.53-0.426,0.798-0.931,0.798-1.514c0-0.477-0.174-0.957-0.514-1.436c-0.346-0.483-0.789-0.72-1.334-0.72h-13.504
				c-0.343,0-0.514-0.169-0.514-0.512v-5.24C120.145,54.58,120.315,54.409,120.66,54.409z M135.496,75.152
				c0.345,0,0.514-0.174,0.514-0.514v-3.08c0-0.338-0.169-0.514-0.514-0.514h-9.141c-0.479,0-0.871,0.197-1.182,0.589
				c-0.307,0.399-0.459,0.831-0.459,1.31c0,0.582,0.168,1.099,0.512,1.54c0.342,0.446,0.821,0.669,1.436,0.669H135.496
				L135.496,75.152L135.496,75.152z"/>
			<path fill="#FFFFFF" d="M149.299,44.346h5.234c0.346,0,0.514,0.172,0.514,0.514v30.445v0.103v5.235
				c0,0.352-0.173,0.519-0.514,0.519h-5.234c-0.346,0-0.514-0.171-0.514-0.519v-5.235v-0.103V44.859
				C148.787,44.516,148.953,44.346,149.299,44.346z"/>
		</g>
		<g id="Layer_1_1_" display="inline">
			<g>
				<path fill="#FFFFFF" d="M98.43,114.883c0-1.249,0.436-2.45,1.31-3.615c0.871-1.174,2.119-2.239,3.744-3.164v-0.263
					c-0.852-0.46-1.596-1.122-2.242-1.948c-0.636-0.841-0.96-1.92-0.96-3.239c0-1.023,0.333-2.057,1-3.108
					c0.655-1.052,1.592-1.963,2.784-2.779v-0.254c-1.115-0.812-2.052-1.892-2.819-3.244c-0.763-1.342-1.148-2.953-1.148-4.826
					c0-1.756,0.34-3.323,1.019-4.709c0.686-1.385,1.603-2.562,2.761-3.555c1.147-0.981,2.479-1.726,4-2.244
					c1.507-0.512,3.121-0.766,4.826-0.766c1.748,0,3.328,0.254,4.736,0.766h12.859v4.799h-7.807
					c0.643,0.682,1.215,1.535,1.727,2.535c0.512,1.005,0.771,2.122,0.771,3.357c0,1.713-0.319,3.229-0.958,4.554
					c-0.643,1.324-1.516,2.446-2.624,3.356c-1.112,0.926-2.413,1.62-3.906,2.071c-1.488,0.464-3.094,0.708-4.803,0.708
					c-0.761,0-1.587-0.074-2.465-0.248c-0.873-0.16-1.732-0.433-2.589-0.766c-1.453,0.948-2.176,2.033-2.176,3.258
					c0,1.15,0.535,1.986,1.596,2.493c1.066,0.521,2.605,0.766,4.605,0.766h6.652c4.104,0,7.137,0.592,9.127,1.751
					c1.981,1.174,2.973,3.113,2.973,5.793c0,1.493-0.418,2.897-1.25,4.226c-0.835,1.329-2.016,2.479-3.554,3.483
					c-1.532,1-3.394,1.799-5.57,2.362c-2.173,0.582-4.605,0.873-7.298,0.873c-4.437,0-7.935-0.728-10.493-2.155
					C99.712,119.756,98.43,117.653,98.43,114.883z M103.799,114.117c0,1.493,0.824,2.695,2.47,3.615
					c1.644,0.921,4.019,1.376,7.132,1.376c1.661,0,3.166-0.155,4.512-0.479c1.344-0.319,2.497-0.747,3.459-1.277
					c0.963-0.535,1.69-1.146,2.207-1.821c0.512-0.677,0.761-1.404,0.761-2.179c0-1.361-0.565-2.263-1.69-2.723
					c-1.131-0.446-2.831-0.662-5.089-0.662h-5.505c-0.979,0-1.852-0.042-2.619-0.104c-0.773-0.052-1.498-0.192-2.177-0.413
					c-1.282,0.728-2.174,1.47-2.694,2.239C104.066,112.446,103.799,113.259,103.799,114.117z M112.7,95.23
					c1.794,0,3.324-0.592,4.61-1.789c1.277-1.197,1.92-2.854,1.92-4.985c0-2.052-0.643-3.69-1.92-4.93
					c-1.286-1.239-2.816-1.854-4.61-1.854c-1.798,0-3.329,0.624-4.605,1.854c-1.277,1.239-1.921,2.878-1.921,4.93
					c0,2.136,0.646,3.788,1.921,4.985C109.371,94.634,110.906,95.23,112.7,95.23z"/>
			</g>
			<path fill="#FFFFFF" d="M50.438,110.099h-5.363l-0.532-5.356h-0.262c-1.591,1.854-3.327,3.343-5.197,4.465
				c-1.878,1.117-4.053,1.681-6.523,1.681c-3.841,0-6.645-1.112-8.406-3.338c-1.769-2.244-2.649-5.483-2.649-9.771V81.526
				l-8.571-0.166l15.189-5.85l-0.065,4.423v16.992c0,2.858,0.507,4.967,1.521,6.323c1.016,1.348,2.757,2.028,5.231,2.028
				c1.675,0,3.209-0.418,4.6-1.234c1.39-0.826,2.883-2.197,4.47-4.146V77.723h6.555L50.438,110.099L50.438,110.099z"/>
			<path fill="#FFFFFF" d="M61.298,77.727h5.358l0.53,5.227h0.262c1.638-1.675,3.399-3.104,5.301-4.269
				c1.894-1.169,4.105-1.751,6.62-1.751c3.798,0,6.58,1.127,8.341,3.371c1.764,2.25,2.654,5.498,2.654,9.738v20.056h-6.56V90.897
				c0-2.822-0.502-4.906-1.521-6.254c-1.01-1.353-2.757-2.028-5.231-2.028c-1.726,0-3.264,0.441-4.639,1.291
				c-1.364,0.859-2.894,2.15-4.568,3.873v22.306h-6.551L61.298,77.727L61.298,77.727z"/>
			<path fill="#FFFFFF" d="M163.512,93.949c0-2.658,0.465-5.028,1.395-7.123c0.928-2.094,2.16-3.887,3.709-5.361
				c1.54-1.475,3.306-2.602,5.301-3.377c1.986-0.773,4.045-1.154,6.157-1.154c2.386,0,4.489,0.371,6.33,1.129
				c1.821,0.749,3.385,1.796,4.662,3.139c1.276,1.349,2.253,2.954,2.915,4.842c0.652,1.873,1,3.938,1,6.188
				c0,0.662-0.047,1.296-0.104,1.892c-0.065,0.602-0.149,1.09-0.239,1.484h-24.37c0.221,3.169,1.397,5.657,3.541,7.45
				c2.145,1.789,4.845,2.686,8.107,2.686c1.769,0,3.407-0.254,4.938-0.737c1.526-0.483,3.015-1.164,4.456-2.052l2.323,4.16
				c-1.661,1.061-3.559,1.953-5.657,2.694c-2.094,0.724-4.403,1.08-6.921,1.08c-2.435,0-4.709-0.371-6.857-1.15
				c-2.143-0.77-4.004-1.883-5.591-3.348c-1.592-1.45-2.841-3.244-3.747-5.343C163.968,98.963,163.512,96.592,163.512,93.949z
				 M188.873,91.104c0-2.92-0.761-5.146-2.259-6.689c-1.497-1.545-3.634-2.315-6.417-2.315c-2.434,0-4.591,0.771-6.488,2.315
				c-1.9,1.554-3.072,3.77-3.512,6.689H188.873z"/>
			<path fill="#FFFFFF" d="M216.502,76.699l0.023,34.062h-6.559V85.893H197.68L216.502,76.699z M212.685,70.022
				c-1.418,0-2.577-0.423-3.521-1.253c-0.916-0.841-1.376-1.968-1.376-3.379s0.46-2.546,1.376-3.406
				c0.943-0.86,2.099-1.291,3.521-1.291c1.409,0,2.582,0.427,3.507,1.291c0.935,0.863,1.395,1.998,1.395,3.406
				c0,1.411-0.46,2.54-1.395,3.379C215.267,69.602,214.094,70.022,212.685,70.022z"/>
			<path fill="#FFFFFF" d="M225.609,94.602c0-2.686,0.484-5.099,1.456-7.207c0.972-2.122,2.3-3.91,3.977-5.371
				c1.666-1.451,3.601-2.553,5.788-3.306c2.179-0.749,4.512-1.122,6.977-1.122c2.657,0,4.958,0.45,6.958,1.352
				c1.995,0.897,3.647,2,4.962,3.278l-3.164,4.164c-1.286-1.056-2.615-1.887-3.985-2.479c-1.357-0.597-2.841-0.888-4.433-0.888
				c-1.713,0-3.305,0.268-4.77,0.827c-1.451,0.554-2.699,1.328-3.732,2.352c-1.047,1.019-1.854,2.239-2.413,3.672
				c-0.577,1.437-0.864,3.014-0.864,4.728c0,1.728,0.277,3.305,0.826,4.736c0.555,1.451,1.353,2.658,2.381,3.677
				c1.037,1.005,2.263,1.798,3.671,2.352c1.418,0.55,2.972,0.836,4.709,0.836c1.977,0,3.766-0.376,5.357-1.136
				c1.587-0.752,3.023-1.652,4.305-2.724l2.784,4.249c-1.854,1.582-3.888,2.822-6.089,3.667c-2.207,0.854-4.508,1.286-6.888,1.286
				c-2.517,0-4.859-0.371-7.052-1.127c-2.183-0.746-4.065-1.85-5.657-3.31c-1.596-1.455-2.85-3.239-3.751-5.333
				C226.065,99.695,225.609,97.301,225.609,94.602z"/>
			<path fill="#FFFFFF" d="M256.723,64.005L270.45,57.2V76.27l-0.399,7.28c1.644-1.676,3.395-3.088,5.301-4.235
				c1.896-1.15,4.099-1.719,6.619-1.719c3.794,0,6.573,1.122,8.343,3.368c1.756,2.257,2.653,5.501,2.653,9.731v20.065h-6.559V91.559
				c0-2.826-0.508-4.905-1.531-6.253c-1.014-1.353-2.751-2.033-5.229-2.033c-1.719,0-3.268,0.441-4.625,1.291
				c-1.38,0.859-2.896,2.155-4.577,3.874v22.31h-6.554l-0.15-47.031L256.723,64.005z"/>
			<g>
				<polygon fill="#FFFFFF" points="294.191,49.374 291.98,53.986 319.427,54.102 321.633,49.399 				"/>
				<polygon fill="#FFFFFF" points="292.022,59.434 289.746,64.275 317.225,64.333 319.427,59.544 				"/>
				<polygon fill="#FFFFFF" points="297.385,69.769 309.971,42.963 314.816,43.036 302.38,69.774 				"/>
			</g>
			<g>
				<path fill="#FFFFFF" d="M147.095,99.573c0,2.164,0.544,3.741,1.632,4.699c1.086,0.963,2.502,1.446,4.256,1.446
					c0.85,0,1.729-0.113,2.624-0.324c0.894-0.216,1.901-0.554,3.005-1.028l1.535,4.742c-0.726,0.253-1.42,0.479-2.08,0.704
					c-0.667,0.207-1.336,0.385-2.014,0.54c-0.682,0.155-1.395,0.277-2.139,0.38c-0.754,0.113-1.57,0.165-2.463,0.165
					c-3.502,0-6.16-1-7.975-3.015c-1.814-2-2.721-4.896-2.721-8.699V56.571h-10.238l16.572-11.678"/>
			</g>
		</g>
		<g display="inline">
			<polygon fill="#FFFFFF" points="333.262,38.486 331.389,42.403 354.68,42.497 356.553,38.509 			"/>
			<polygon fill="#FFFFFF" points="331.417,47.027 329.487,51.133 352.812,51.179 354.68,47.119 			"/>
			<polygon fill="#FFFFFF" points="335.347,55.799 345.863,33.05 350.765,33.107 340.206,55.799 			"/>
		</g>
	</g>
	<g id="Layer_2_1_">
		<g enable-background="new    ">
			<path fill="#FFFFFF" d="M47.594,85.217c0.541,0,0.81,0.271,0.81,0.812v8.268c0,0.55-0.269,0.812-0.81,0.812h-15.25
				c-2.973,0-5.625-0.526-7.949-1.577c-2.327-1.057-4.298-2.438-5.923-4.137c-1.622-1.704-2.868-3.601-3.73-5.681
				c-0.865-2.08-1.295-4.151-1.295-6.203v-6.816c0-2.754,0.39-5.228,1.178-7.419c0.78-2.19,1.997-4.056,3.648-5.596
				c1.649-1.543,3.77-2.731,6.369-3.57c2.593-0.838,5.677-1.256,9.246-1.256h13.709c0.541,0,0.81,0.271,0.81,0.812v8.273
				c0,0.541-0.269,0.81-0.81,0.81H32.263c-3.135,0-5.477,0.947-7.014,2.842c-1.541,1.892-2.31,4.212-2.31,6.975v3.488
				c0,2.7,0.744,4.906,2.23,6.605c1.488,1.708,3.851,2.559,7.096,2.559H47.594z"/>
			<path fill="#FFFFFF" d="M83.688,52.039V37.764c0-0.54,0.269-0.81,0.814-0.81h8.271c0.541,0,0.81,0.27,0.81,0.81v56.532
				c0,0.55-0.269,0.812-0.81,0.812H67.549c-2.599,0-4.814-0.657-6.652-1.986c-1.842-1.319-3.356-3.014-4.541-5.065
				c-1.19-2.052-2.069-4.305-2.638-6.738c-0.567-2.428-0.851-4.779-0.851-7.056c0-3.188,0.284-6.108,0.851-8.757
				c0.568-2.649,1.447-4.908,2.638-6.771c1.188-1.865,2.702-3.312,4.541-4.341c1.838-1.026,4.054-1.542,6.652-1.542h15.329
				C83.418,52.85,83.688,52.58,83.688,52.039z M83.688,63.558c0-0.539-0.27-0.81-0.811-0.81h-8.84c-1.678,0-3.204,0.149-4.584,0.447
				c-1.377,0.298-2.567,0.865-3.567,1.702c-1,0.839-1.769,2.017-2.31,3.528c-0.543,1.518-0.812,3.461-0.812,5.837
				c0,2.22,0.271,4.028,0.812,5.437c0.542,1.408,1.298,2.513,2.271,3.329c0.974,0.803,2.149,1.381,3.529,1.7
				c1.376,0.323,2.929,0.488,4.663,0.488h8.841c0.54,0,0.81-0.268,0.81-0.808V63.558H83.688z"/>
			<path fill="#FFFFFF" d="M101.13,36.954h8.271c0.541,0,0.812,0.27,0.812,0.81v8.274c0,0.54-0.271,0.81-0.812,0.81h-8.271
				c-0.547,0-0.814-0.27-0.814-0.81v-8.274C100.315,37.224,100.583,36.954,101.13,36.954z M100.315,53.663
				c0-0.542,0.268-0.812,0.814-0.812h8.271c0.541,0,0.812,0.271,0.812,0.812v40.633c0,0.55-0.271,0.812-0.812,0.812h-8.271
				c-0.547,0-0.814-0.263-0.814-0.812V53.663L100.315,53.663z"/>
			<path fill="#FFFFFF" d="M117.508,85.217h22.308c0.758,0,1.35-0.122,1.784-0.362c0.434-0.248,0.768-0.554,1.014-0.934
				c0.246-0.381,0.395-0.799,0.448-1.263c0.052-0.456,0.08-0.879,0.08-1.25c0-0.705-0.179-1.404-0.528-2.113
				c-0.35-0.699-1.068-1.057-2.148-1.057h-12.736c-1.946,0-3.596-0.31-4.948-0.934c-1.353-0.62-2.435-1.488-3.249-2.597
				c-0.808-1.103-1.404-2.432-1.781-3.969c-0.379-1.541-0.566-3.231-0.566-5.069c0-2.704,0.311-4.895,0.935-6.57
				c0.62-1.675,1.565-2.973,2.838-3.895c1.271-0.917,2.895-1.54,4.866-1.865c1.975-0.322,4.34-0.487,7.099-0.487h17.521
				c0.541,0,0.809,0.271,0.809,0.812v8.273c0,0.541-0.268,0.81-0.809,0.81h-21.256c-0.861,0-1.485,0.312-1.861,0.933
				c-0.38,0.625-0.57,1.312-0.57,2.069c0,0.704,0.205,1.406,0.61,2.108c0.406,0.704,1.015,1.053,1.824,1.053h11.845
				c2.108,0,3.92,0.231,5.438,0.69c1.514,0.459,2.744,1.229,3.689,2.313c0.946,1.08,1.648,2.551,2.107,4.413
				c0.459,1.868,0.691,4.211,0.691,7.02c0,0.812-0.125,1.878-0.367,3.207c-0.244,1.328-0.688,2.619-1.338,3.896
				c-0.652,1.263-1.554,2.366-2.719,3.277c-1.164,0.92-2.661,1.375-4.502,1.375h-26.525c-0.54,0-0.808-0.258-0.808-0.812v-8.263
				C116.7,85.488,116.968,85.217,117.508,85.217z"/>
			<path fill="#FFFFFF" d="M172.996,84.409c0,0.54,0.268,0.808,0.807,0.808h6.812c0.438,0.051,0.652,0.323,0.652,0.812v8.268
				c0,0.55-0.268,0.812-0.809,0.812h-10.221c-2.055,0-3.759-0.62-5.113-1.864c-1.35-1.239-2.025-2.704-2.025-4.375V63.558
				c0-0.539-0.271-0.81-0.812-0.81h-4.301c-0.539,0-0.812-0.269-0.812-0.81v-8.276c0-0.542,0.273-0.812,0.812-0.812h4.301
				c0.542,0,0.812-0.27,0.812-0.811V41.901c0-0.539,0.268-0.811,0.81-0.811h8.274c0.537,0,0.812,0.272,0.812,0.811v10.138
				c0,0.541,0.268,0.811,0.807,0.811h6.656c0.541,0,0.809,0.271,0.809,0.812v8.273c0,0.541-0.268,0.81-0.809,0.81h-6.656
				c-0.539,0-0.807,0.271-0.807,0.81V84.409z"/>
		</g>
	</g>
</g>
</svg>
